<?xml version="1.0" standalone="no"?>
<!DOCTYPE svg PUBLIC "-//W3C//DTD SVG 1.1//EN" "http://www.w3.org/Graphics/SVG/1.1/DTD/svg11.dtd" >
<svg xmlns="http://www.w3.org/2000/svg" xmlns:xlink="http://www.w3.org/1999/xlink" version="1.1">
<metadata>
Created by FontForge 20170924 at Fri Jan  1 00:00:00 1904
 By www-data
Copyright 1991, Atech Software, Carlsbad CA 
</metadata>
<defs>
<font id="Compact-Bold" horiz-adv-x="10" >
  <font-face 
    font-family="Compact"
    font-weight="700"
    font-stretch="normal"
    units-per-em="1000"
    panose-1="0 0 0 0 0 0 0 0 0 0"
    ascent="800"
    descent="-200"
    x-height="672"
    cap-height="840"
    bbox="-51 -280 1075 1050"
    underline-thickness="50"
    underline-position="-105"
    unicode-range="U+0020-2219"
  />
<missing-glyph 
 />
    <glyph glyph-name=".notdef" 
 />
    <glyph glyph-name="glyph1" horiz-adv-x="0" 
 />
    <glyph glyph-name="glyph2" horiz-adv-x="351" 
 />
    <glyph glyph-name="space" unicode=" " horiz-adv-x="361" 
 />
    <glyph glyph-name="exclam" unicode="!" horiz-adv-x="246" 
d="M42 0v151h10h152v-151h-10h-152v0zM56 213l-14 627h10h152l-12 -627h-10h-126v0z" />
    <glyph glyph-name="quotedbl" unicode="&#x22;" horiz-adv-x="440" 
d="M200 714l-40 -221h-10h-60l-40 221h10h140v0zM390 714l-40 -221h-10h-60l-40 221h10h140v0z" />
    <glyph glyph-name="numbersign" unicode="#" horiz-adv-x="640" 
d="M194 587l18 102h10h92l-17 -102h101l18 102h10h92l-18 -102h84l-15 -92h-84l-26 -141h84l-15 -91h-84l-21 -112h-10h-91l20 112h-102l-20 -112h-10h-92l20 112h-82l15 91h82l26 141h-83l16 92h82v0zM256 354h101l26 141h-102l-25 -141v0z" />
    <glyph glyph-name="dollar" unicode="$" horiz-adv-x="513" 
d="M66 285h168v-186q0 -8 7 -14.5t17 -8.5q7 2 11.5 6t6.5 9q1 2 1.5 4t0.5 4v164q0 23 -5.5 32.5t-15.5 15.5q-4 3 -9 6.5t-10 7.5l-115 95q-21 17 -32.5 28.5t-16.5 22.5q-6 11 -7 23.5t-1 31.5v2.5v2.5v180v4.5v4.5v24t3 26q5 31 29 57t87 26h5v67h10h130v-66h2h2h0.5
h1.5h2.5h2.5h10h4.5h5.5q2 0 4.5 -0.5t4.5 -0.5q42 -6 60 -29.5t23 -50.5q3 -15 3.5 -29.5t0.5 -26.5v-2.5v-2.5v-131h-10h-168v158q0 8 -5 13t-11 8q-1 0 -2 0.5t-2 0.5h-1.5t-1.5 -1q-7 -2 -13.5 -7.5t-6.5 -13.5v-140q0 -27 5.5 -38.5t15.5 -19.5q5 -4 10.5 -8t11.5 -9
l120 -99q7 -5 12.5 -10t10.5 -10q16 -15 25 -33.5t9 -51.5v-196v-1.5v-1.5q0 -11 -0.5 -26t-4.5 -31q-7 -30 -31.5 -54t-82.5 -24l-7 -1v-105h-10h-130v105l-32 2q-43 4 -64 25t-29 47q-7 20 -8 38.5t-1 27.5v160h10v0z" />
    <glyph glyph-name="percent" unicode="%" horiz-adv-x="756" 
d="M607 -15h-102q-6 1 -12 1t-12 1q-28 2 -51 20.5t-23 79.5v149q0 8 0.5 18t2.5 20q5 22 25 41t70 19h10h102q8 0 17 -0.5t19 -2.5q23 -6 42 -26t19 -69v-149q0 -54 -19.5 -74t-43.5 -24q-9 -2 -17.5 -2.5t-16.5 -0.5l-10 -1v0zM540 249v-177q0 -9 6.5 -16t13.5 -9h1.5
t1.5 1q6 2 12 8t6 16v177q0 8 -5.5 15.5t-14.5 9.5q-9 -2 -14 -7.5t-6 -11.5q-1 -2 -1 -3.5v-2.5v0zM113 0l383 840h10h141l-384 -840h-10h-140v0zM240 496h-100h-12t-12 1q-28 2 -51 20.5t-23 80.5v149q0 8 0.5 18.5t3.5 21.5q6 22 26 40t67 18h10h102q46 0 66 -18t26 -40
q3 -11 4 -21.5t1 -18.5v-149q0 -54 -19 -74.5t-43 -24.5q-9 -2 -18.5 -2.5t-17.5 -0.5h-10v0zM175 760v-178q0 -9 5 -14.5t11 -8.5q1 0 2 -0.5t2 -0.5q8 2 14 8t6 16v178q0 9 -5.5 16t-14.5 9q-9 -2 -14.5 -9.5t-5.5 -15.5v0z" />
    <glyph glyph-name="ampersand" unicode="&#x26;" horiz-adv-x="551" 
d="M509 88v-102h-10h-124q-1 1 -1.5 1h-1.5h-7h-8q-19 1 -37 7t-29 26q-2 -2 -4.5 -4t-4.5 -4q-8 -6 -16.5 -11t-17.5 -9q-6 -2 -11.5 -3.5t-11.5 -1.5l-10 -1h-56q-50 1 -71 24t-28 50q-3 16 -3.5 30.5t-0.5 25.5v2.5v2.5v197v0.5v0.5q0 7 1 20.5t6 28.5q8 20 27 36.5
t59 17.5v10h-2h-2h-2h-2q-37 0 -53.5 17t-21.5 37q-3 10 -3.5 20t-0.5 18v185v0.5v0.5q0 12 0.5 27.5t3.5 30.5q7 32 32.5 59t87.5 27h10h124h3.5h2.5q48 0 85 -18t37 -127v-55h-10h-168v86v2.5t-1 2.5q-2 6 -7 11t-14 6q-9 -1 -15 -7t-6 -15v-243q0 -7 5.5 -14t15.5 -9
q8 2 13 6t7 9q1 2 1.5 4t0.5 4v59h10h168v-73h54v-98h-54v-248q0 -21 11.5 -34.5t33.5 -15.5h1.5t1.5 1h1.5h1.5h10v0zM270 101v282h-1.5t-1.5 -1q-15 -3 -27.5 -15t-12.5 -36v-230q0 -10 6 -15.5t16 -7.5q9 1 14.5 7t6.5 13v1.5v1.5v0z" />
    <glyph glyph-name="quotesingle" unicode="'" horiz-adv-x="250" 
d="M200 714l-40 -221h-10h-60l-40 221h10h140v0z" />
    <glyph glyph-name="parenleft" unicode="(" horiz-adv-x="261" 
d="M233 84v-84q-7 0 -14.5 -0.5t-15.5 -0.5l-10 -1q-63 1 -106.5 33.5t-43.5 93.5l-1 585q0 63 45.5 97.5t106.5 34.5h10h7.5t7.5 -1q3 0 6.5 -0.5t7.5 -0.5v-84h-3q-19 0 -31.5 -13.5t-12.5 -33.5v-583q0 -20 13.5 -31t31.5 -11h2v0z" />
    <glyph glyph-name="parenright" unicode=")" horiz-adv-x="267" 
d="M28 0v85q22 0 32 7.5t13 15.5q2 5 2.5 9.5t0.5 7.5v585q0 20 -12.5 32.5t-33.5 12.5h-2v85h10l49 -5q11 -1 27 -3.5t34 -8.5q29 -9 53 -34.5t24 -77.5v-585q0 -55 -25.5 -80.5t-56.5 -34.5q-17 -5 -33.5 -6.5t-28.5 -2.5l-43 -2h-10v0z" />
    <glyph glyph-name="asterisk" unicode="*" horiz-adv-x="486" 
d="M56 669l33 101h10q3 -1 6.5 -2.5t6.5 -2.5q2 -1 3.5 -1.5t3.5 -1.5q12 -4 26.5 -8.5t39.5 -11.5q1 27 1 34.5t1 10.5v4v5q0 2 -0.5 8t-0.5 13v0.5v1.5q0 6 -0.5 12t-0.5 9h10h106q0 -7 -0.5 -12.5t-0.5 -10.5v-7v-7v-2v-1v-2v-2v-2.5v-2.5v-3v-3v-2v-2v-16.5t1 -22.5
q11 3 20.5 5.5t18.5 5.5q6 2 12.5 4t12.5 4t11.5 4t11.5 5h10l32 -101q-12 -3 -21.5 -6t-18.5 -5q-4 -2 -8 -3t-8 -3q-10 -3 -19.5 -6.5t-20.5 -7.5q4 -7 12 -18l16 -22q1 -2 2 -3l2 -2q8 -11 15.5 -20.5t12.5 -16.5l-86 -62h-10q-7 9 -11 15t-7 11l-1 1v1q-2 2 -3 4t-3 4
q-1 2 -6.5 9t-10.5 14q-4 5 -7 9.5t-6 7.5q-5 -7 -11.5 -16t-13.5 -19q-9 -12 -17 -23.5t-12 -17.5h-10l-86 62q8 10 14.5 18.5t12.5 16.5q1 1 1.5 2.5t1.5 2.5q7 9 14 19.5t16 22.5q-17 6 -29 10t-23 8q-2 0 -4 1t-4 1q-8 3 -17 5.5t-20 5.5v0z" />
    <glyph glyph-name="plus" unicode="+" horiz-adv-x="617" 
d="M361 469h200v-93h-200v-201h-10h-92v201h-203v93h203v201h10h92v-201v0z" />
    <glyph glyph-name="comma" unicode="," horiz-adv-x="264" 
d="M60 0v151h10h152v-151q0 -15 -3.5 -32.5t-10.5 -36.5q-7 -18 -18 -35.5t-27 -33.5l-10 -1h-111q32 26 50.5 62t19.5 77h-52v0z" />
    <glyph glyph-name="hyphen" unicode="-" horiz-adv-x="318" 
d="M56 321v88h10h196v-88h-10h-196v0z" />
    <glyph glyph-name="period" unicode="." horiz-adv-x="248" 
d="M42 0v151h10h154v-151h-10h-154v0z" />
    <glyph glyph-name="slash" unicode="/" horiz-adv-x="405" 
d="M157 -77h-101l182 932h10h101l-182 -932h-10v0z" />
    <glyph glyph-name="zero" unicode="0" horiz-adv-x="512" 
d="M56 130v574q0 12 0.5 25.5t3.5 27.5q6 37 31.5 67t90.5 30h10h139q10 0 20.5 -0.5t21.5 -3.5q31 -7 57 -37.5t26 -108.5v-574v-0.5v-0.5q0 -12 -0.5 -25.5t-2.5 -26.5q-6 -34 -30.5 -62t-91.5 -28l-10 -1h-140q-62 1 -87.5 27t-32.5 58q-4 16 -4.5 31.5t-0.5 27.5v0z
M234 734v-628q0 -10 7 -17.5t15 -9.5q8 2 15 9.5t7 17.5v628v1.5v1.5q-1 9 -6.5 16t-15.5 9q-10 -2 -15.5 -9t-6.5 -16v-1.5v-1.5v0z" />
    <glyph glyph-name="one" unicode="1" horiz-adv-x="386" 
d="M138 0v635q-13 -7 -29 -13.5t-43 -12.5h-10v124q41 5 70.5 33t35.5 74h10h144v-840h-10h-168v0z" />
    <glyph glyph-name="two" unicode="2" horiz-adv-x="514" 
d="M56 0v129q0 50 22 95t48 81q15 19 28.5 35t23.5 27q24 27 42 49t31 43q13 23 19.5 46t6.5 53v181q0 10 -5.5 16t-13.5 7q-9 -1 -16.5 -6.5t-7.5 -16.5v-173h-10h-168v145v1.5v0.5q0 12 0.5 25.5t2.5 27.5q6 33 32 60.5t94 27.5h10h130h3.5h2.5h17t17 -1q34 -4 62 -30
t28 -110v-163v-5.5v-4.5v-16v-15q-2 -38 -16.5 -80t-66.5 -104q-19 -23 -36 -42.5t-32 -37.5q-24 -31 -40 -65.5t-24 -87.5h218v-92h-10h-392v0z" />
    <glyph glyph-name="three" unicode="3" horiz-adv-x="503" 
d="M66 294h160v-193q0 -10 6 -15.5t16 -7.5q10 2 15.5 7.5t5.5 15.5v198v1.5v1.5v4v3q0 30 -10.5 55t-62.5 26h-4h-4t-4 -0.5t-4 -0.5h-10v92h10q2 0 4.5 -0.5t5.5 -0.5h4.5h4.5q46 1 57.5 22t12.5 47v4.5v5.5v177q0 2 -0.5 3.5t-0.5 3.5q-2 6 -7 11.5t-13 7.5
q-10 -2 -16 -8.5t-6 -17.5v-169h-10h-160v145q0 12 1 27.5t5 32.5q8 30 33.5 55.5t85.5 25.5h10h132q10 0 21.5 -0.5t24.5 -3.5q29 -7 53.5 -35t24.5 -101v-155q0 -9 -1.5 -25t-7.5 -34q-8 -24 -29.5 -44.5t-66.5 -22.5v-9h2h2h2h2q39 0 59 -17t29 -38q7 -17 8 -32.5
t1 -20.5v-189q0 -11 -0.5 -23.5t-1.5 -25.5q-5 -34 -29.5 -62t-92.5 -28l-10 -1h-133q-10 1 -21.5 2t-22.5 4q-30 7 -55 34.5t-25 97.5v170h10v0z" />
    <glyph glyph-name="four" unicode="4" horiz-adv-x="548" 
d="M277 0v202h-235v99l149 539h10h254v-546h51v-92h-51v-202h-10h-168v0zM201 294h76v341l-76 -341v0z" />
    <glyph glyph-name="five" unicode="5" horiz-adv-x="511" 
d="M66 294h168v-191q0 -12 7 -17.5t15 -7.5q9 2 14 7.5t6 11.5q1 2 1 3.5v2.5v372v2.5t-1 3.5q-1 6 -6 11.5t-13 7.5q-9 -1 -16 -7.5t-7 -17.5v-59h-10h-168v424h10h354v-92h-187v-185q3 3 6.5 5.5t7.5 5.5q19 14 44.5 26t53.5 12h10q57 0 78.5 -33t21.5 -103v-352
q0 -91 -32 -113t-70 -24h-10.5h-10.5l-10 -1h-138q-11 1 -24.5 1.5t-27.5 4.5q-28 8 -52 35.5t-24 96.5v170h10v0z" />
    <glyph glyph-name="six" unicode="6" horiz-adv-x="511" 
d="M445 574h-168v165q0 10 -5.5 16t-11.5 8q-2 0 -3.5 0.5t-2.5 0.5t-2 -0.5t-2 -0.5q-6 -3 -11 -8.5t-5 -15.5v-267q1 1 2 1.5t1 1.5q20 16 47 29t59 13h10q47 0 68.5 -22.5t27.5 -49.5q4 -15 5 -29.5t1 -24.5v-268v-2.5v-3.5v-19.5t-1 -20.5q-4 -34 -27.5 -62t-95.5 -28
l-10 -1h-138q-59 1 -85.5 24t-34.5 51q-5 17 -6 33t-1 27v1.5v0.5v587q0 76 26 105t57 35q11 3 22.5 3.5t21.5 0.5h10h137h13.5t13.5 -1q37 -3 67.5 -29t30.5 -114v-136h-10v0zM234 385v-282q0 -9 6 -16t16 -9q11 2 16 8.5t5 16.5v282q0 9 -6 16t-15 9q-9 -1 -15.5 -7.5
t-6.5 -17.5v0z" />
    <glyph glyph-name="seven" unicode="7" horiz-adv-x="445" 
d="M77 0l140 748h-175v92h10h337v-96l-132 -744h-10h-170v0z" />
    <glyph glyph-name="eight" unicode="8" horiz-adv-x="511" 
d="M322 -14h-148q-61 1 -85 25.5t-30 54.5q-2 14 -2.5 27t-0.5 24v3v3v196q0 44 19 64.5t42 28.5q11 3 22 4.5t19 1.5v11q-45 0 -66.5 16t-28.5 35q-5 13 -6 25t-1 19v185v1.5v1.5q0 11 0.5 27.5t5.5 33.5q8 31 34 56t86 25h10h137q57 0 83 -24.5t35 -54.5q6 -19 7 -37
t1 -29v-185q0 -39 -17.5 -59t-37.5 -28q-14 -5 -26.5 -6.5t-20.5 -1.5v-11q42 -1 63 -16.5t30 -34.5q7 -15 8 -28.5t1 -19.5v0v0v-196v-4v-4q0 -10 -0.5 -23t-2.5 -26q-6 -30 -31 -54.5t-89 -24.5l-10 -1v0zM234 360v-256q0 -10 6 -17t15 -9q9 2 14 7.5t7 11.5q0 2 0.5 3.5
t0.5 3.5v256q0 11 -7 17.5t-15 8.5q-8 -2 -14.5 -8.5t-6.5 -17.5v0zM234 736v-246q0 -10 4 -15.5t10 -8.5q2 -1 3.5 -1.5t3.5 -0.5q8 2 15 9t7 17v246v1.5v1.5q-1 8 -7 14.5t-15 8.5q-9 -2 -15 -9t-6 -17v0z" />
    <glyph glyph-name="nine" unicode="9" horiz-adv-x="514" 
d="M68 280h168v-177q0 -2 0.5 -4t1.5 -4q2 -6 7 -10.5t14 -6.5q8 2 12.5 6.5t6.5 10.5q1 2 1.5 4t0.5 4v274q-37 -31 -67.5 -38t-47.5 -7h-10q-55 0 -74.5 31t-22.5 68q-1 9 -1.5 18.5t-0.5 18.5v243v10.5v11.5q0 9 0.5 20t3.5 22q6 29 31 54t88 25h10h142q66 0 91.5 -27.5
t31.5 -60.5q3 -15 3.5 -29t0.5 -26v-587q0 -68 -24 -96t-52 -36q-14 -3 -27.5 -4t-24.5 -1l-10 -1h-137q0 1 -0.5 1h-0.5q-10 0 -22.5 0.5t-25.5 3.5q-28 7 -52 34t-24 99v156h10v0zM233 737l1 -275q0 -12 7.5 -18t16.5 -8q10 2 16 9.5t6 16.5v275q0 9 -5 16.5t-16 8.5
q-13 -1 -19.5 -8.5t-6.5 -16.5v0z" />
    <glyph glyph-name="colon" unicode=":" horiz-adv-x="249" 
d="M42 0v151h10h155v-151h-10h-155v0zM42 515v154h10h155v-154h-10h-155v0z" />
    <glyph glyph-name="semicolon" unicode=";" horiz-adv-x="264" 
d="M60 0v151h10h152v-151q0 -13 -4.5 -42.5t-26.5 -62.5q-6 -9 -13 -17t-15 -16l-10 -1h-111q15 13 26 26t19 26q15 25 20 49t5 38h-52v0zM60 515v155h10h152v-155h-10h-152v0z" />
    <glyph glyph-name="less" unicode="&#x3c;" horiz-adv-x="626" 
d="M192 419l378 -154v-90h-10l-504 205v80l504 202h10v-91l-378 -152v0z" />
    <glyph glyph-name="equal" unicode="=" horiz-adv-x="625" 
d="M56 287v88h10h503v-88h-10h-503v0zM56 470v89h10h503v-89h-10h-503v0z" />
    <glyph glyph-name="greater" unicode="&#x3e;" horiz-adv-x="626" 
d="M433 419l-377 152v91h10l504 -202v-80l-504 -205h-10v90l377 154v0z" />
    <glyph glyph-name="question" unicode="?" horiz-adv-x="448" 
d="M131 0v152h10h153v-152h-10h-153v0zM131 213l3 80q2 52 19 91.5t37 71.5q4 7 8.5 14t8.5 14q14 23 25 47t11 56v146q0 10 -6 16.5t-14 7.5h-1.5t-0.5 -1q-7 -2 -12 -8t-5 -15v-154h-10h-152v131q0 86 28 113t62 30q6 1 11.5 1h10.5h10h130q60 0 82.5 -27.5t27.5 -59.5
q2 -14 2 -27v-24v-3.5v-3.5v-117q0 -17 -0.5 -30.5t-3.5 -26.5q-3 -15 -9 -31t-18 -36q-6 -10 -12 -20.5t-13 -21.5q-18 -32 -34 -65.5t-18 -68.5l-4 -79h-10h-153v0z" />
    <glyph glyph-name="at" unicode="@" horiz-adv-x="857" 
d="M482 -167h-234q-129 1 -159.5 47t-32.5 101v10.5v10.5l1 676v14.5t1 15.5q4 52 37 95.5t135 43.5h10h369h6.5h7.5h23.5t24.5 -1q49 -5 89.5 -41.5t40.5 -157.5v-435v-2.5v-2.5v-30.5t-2 -31.5q-5 -60 -41 -109t-152 -49l-10 -1q-46 1 -81.5 8t-63.5 48q-6 -8 -12 -14.5
t-12 -12.5q-22 -19 -43 -23.5t-35 -4.5l-10 -1q-1 1 -1.5 1h-1.5q-31 0 -56.5 20t-25.5 113v418q0 64 12.5 108.5t76.5 44.5h10q27 0 51 -13.5t41 -34.5v35h10h142v-502v-3v-3v-7.5v-7.5q0 -26 6 -48t28 -25q19 3 25 21.5t7 39.5v5.5v5.5v493q0 87 -28 101.5t-68 13.5h-6h-6
h-249h-8h-8q-51 1 -73.5 -14.5t-22.5 -110.5v-616q0 -59 19 -79t86 -20l193 -1v-88h-10v0zM406 528v-404q0 -3 0.5 -6.5t1.5 -8.5t5 -10.5t12 -6.5q9 2 13 10.5t5 17.5q2 7 2 13v10v415q0 3 -0.5 7t-1.5 8q-1 6 -4.5 11t-11.5 7q-11 -3 -15.5 -14.5t-5.5 -25.5v-10.5v-9.5
v-1.5v-1.5v0z" />
    <glyph glyph-name="A" unicode="A" horiz-adv-x="505" 
d="M28 0l88 840h10h265l86 -840h-10h-164l-18 224h-68l-16 -224h-10h-163v0zM222 316h56l-28 405l-28 -405v0z" />
    <glyph glyph-name="B" unicode="B" horiz-adv-x="512" 
d="M56 0v840h10h252q64 0 90.5 -24.5t34.5 -54.5q4 -15 4.5 -30t0.5 -26v-0.5v-0.5v-168q0 -51 -29.5 -74t-65.5 -28q-5 0 -10 -0.5t-10 -0.5h-3v-8h2.5h2.5h2.5h2.5q5 0 11 -0.5t11 -0.5q35 -5 64.5 -27.5t29.5 -71.5v-195q0 -59 -25.5 -86t-56.5 -37q-16 -4 -31 -5.5
t-27 -1.5h-10h-250v0zM234 92h6q17 0 27.5 12t10.5 30v215q0 26 -11 36.5t-25 10.5h-8v-304v0zM234 476h6q17 0 25 7t11 15q1 5 1.5 9.5t0.5 7.5v192q0 19 -11 30t-28 11h-5v-272v0z" />
    <glyph glyph-name="C" unicode="C" horiz-adv-x="498" 
d="M288 294h168v-171q0 -11 -0.5 -24.5t-2.5 -26.5q-6 -32 -30.5 -58.5t-89.5 -26.5l-10 -1h-142q-9 1 -18 1.5t-19 1.5q-33 5 -60.5 31t-27.5 102v586v2v2q0 12 0.5 27t4.5 31q8 29 33.5 53t85.5 24h10h142q9 0 20 -0.5t21 -2.5q31 -5 57 -32.5t26 -103.5v-151h-10h-168
v179v1.5v1.5q-1 8 -7 14.5t-15 8.5q-9 -2 -14 -7.5t-7 -11.5q0 -2 -0.5 -3.5t-0.5 -3.5v-632q0 -2 0.5 -3.5t0.5 -3.5q2 -6 7 -11.5t14 -7.5q9 2 15 8.5t7 14.5v1.5v1.5v190h10v0z" />
    <glyph glyph-name="D" unicode="D" horiz-adv-x="497" 
d="M56 0v840h10h265q59 0 84.5 -23.5t33.5 -50.5q4 -15 5 -29t1 -25v-585v-0.5v-0.5q0 -9 -1 -25t-7 -33q-9 -25 -34.5 -46.5t-81.5 -21.5h-10h-265v0zM234 92h6q2 0 4.5 0.5t5.5 0.5q10 3 18.5 12.5t8.5 31.5v567q0 20 -8 29.5t-17 12.5q-4 1 -7 1.5t-6 0.5h-5v-656v0z" />
    <glyph glyph-name="E" unicode="E" horiz-adv-x="456" 
d="M56 0v840h10h341v-92h-173v-266h173v-92h-173v-298h180v-92h-10h-348v0z" />
    <glyph glyph-name="F" unicode="F" horiz-adv-x="442" 
d="M56 0v840h10h320v-92h-152v-271h143v-92h-143v-385h-10h-168v0z" />
    <glyph glyph-name="G" unicode="G" horiz-adv-x="495" 
d="M264 411h203v-287q0 -89 -33 -112t-73 -25h-13h-13l-10 -1h-142q-61 1 -87.5 25.5t-33.5 54.5q-4 16 -5 31t-1 26v587q0 74 26.5 103.5t57.5 36.5q11 2 21.5 3t20.5 1h10h133q84 0 106.5 -30.5t23.5 -67.5v-6.5v-6.5v-15.5v-15.5v-138h-10h-168v169q0 9 -5 17t-16 10
q-10 -2 -16 -10t-6 -17v-641q0 -13 7.5 -22t20.5 -11q12 2 18.5 10t8.5 17v3.5v2.5v216h-35v93h10v0z" />
    <glyph glyph-name="H" unicode="H" horiz-adv-x="508" 
d="M56 0v840h10h168v-354h40v354h10h168v-840h-10h-168v394h-40v-394h-10h-168v0z" />
    <glyph glyph-name="I" unicode="I" horiz-adv-x="290" 
d="M56 0v840h10h168v-840h-10h-168v0z" />
    <glyph glyph-name="J" unicode="J" horiz-adv-x="337" 
d="M56 -14v99h15q16 0 24 8t8 19v728h10h168v-728q0 -92 -31.5 -108.5t-71.5 -16.5l-10 -1h-112v0z" />
    <glyph glyph-name="K" unicode="K" horiz-adv-x="507" 
d="M56 0v840h10h168v-300l51 300h10h168l-86 -405l102 -435h-10h-165l-70 340v-340h-10h-168v0z" />
    <glyph glyph-name="L" unicode="L" horiz-adv-x="412" 
d="M56 0v840h10h168v-748h150v-92h-10h-318v0z" />
    <glyph glyph-name="M" unicode="M" horiz-adv-x="790" 
d="M56 0v840h10h200l129 -533l129 533h10h200v-840h-10h-168v427l-86 -427h-10h-140l-86 427v-427h-10h-168v0z" />
    <glyph glyph-name="N" unicode="N" horiz-adv-x="536" 
d="M56 0v840h10h168l68 -333v333h10h168v-840h-10h-168l-68 305v-305h-10h-168v0z" />
    <glyph glyph-name="O" unicode="O" horiz-adv-x="511" 
d="M455 704v-574v-0.5v-0.5q0 -12 -0.5 -25t-2.5 -26q-5 -35 -29.5 -63t-92.5 -28l-10 -1h-140q-62 1 -87.5 27t-32.5 58q-3 16 -3.5 31t-0.5 27v0.5v0.5v574q0 12 0.5 25.5t3.5 27.5q6 37 31 67t90 30h10h139q10 0 20.5 -0.5t21.5 -3.5q31 -7 57 -37.5t26 -108.5v0z
M234 734v-628q0 -12 6.5 -18.5t14.5 -8.5q8 2 15 9.5t7 17.5v628v1.5v1.5q-1 9 -6.5 16t-15.5 9q-10 -2 -15.5 -9.5t-5.5 -18.5v0z" />
    <glyph glyph-name="P" unicode="P" horiz-adv-x="497" 
d="M56 0v840h10h264h0.5h0.5q10 0 21.5 -0.5t22.5 -2.5q30 -6 55 -33t25 -102v-275q0 -78 -28 -104.5t-62 -31.5q-9 -1 -18 -1.5t-17 -0.5h-96v-289h-10h-168v0zM234 381h5q22 0 30 9.5t8 28.5v288q0 3 -0.5 7t-1.5 8q-2 10 -9.5 18t-24.5 8h-7v-367v0z" />
    <glyph glyph-name="Q" unicode="Q" horiz-adv-x="511" 
d="M188 -111v96q-2 1 -4.5 1h-4.5l-10 -1q-50 1 -73.5 26.5t-32.5 56.5q-4 17 -5.5 33.5t-1.5 28.5v574q0 81 27 111t59 36q10 2 20 2.5t19 0.5h10h139q64 0 89.5 -30t31.5 -67q3 -14 3.5 -27.5t0.5 -25.5v-574v-1v-1q0 -10 -1 -28.5t-7 -39.5q-9 -28 -32.5 -51t-72.5 -23
l-10 -1q-1 1 -2 1h-3v-97h-10h-129v0zM234 734v-629v-2.5t1 -3.5q1 -7 6.5 -13t14.5 -8q9 2 15 8.5t6 16.5v2v629q0 11 -5.5 18.5t-15.5 9.5q-10 -2 -15.5 -9t-6.5 -16v-1.5v-1.5v0z" />
    <glyph glyph-name="R" unicode="R" horiz-adv-x="517" 
d="M56 0v840h10h265q66 0 90.5 -25t30.5 -56q2 -12 2.5 -24t0.5 -23v-0.5v-1.5v-248v-0.5v-1.5q0 -11 -0.5 -24.5t-4.5 -26.5q-5 -17 -16.5 -33t-35.5 -29l91 -347h-10h-176l-67 320h-2v-320h-10h-168v0zM234 402h7q14 0 25 12t11 39v252v8t-1 9q-2 10 -9 18t-24 8h-9v-346
v0z" />
    <glyph glyph-name="S" unicode="S" horiz-adv-x="513" 
d="M66 285h168v-184q0 -10 6 -15.5t12 -6.5q1 -1 1.5 -1h1.5q10 2 16 8.5t6 14.5v162q0 22 -7 31.5t-17 16.5q-5 3 -10 6.5t-10 7.5l-116 95q-19 16 -29.5 28t-15.5 23t-6 23.5t-1 29.5v3.5v3.5v180q0 104 37 123.5t82 19.5h10h133h11.5h11.5q40 -2 73.5 -26.5t33.5 -115.5
v-131h-10h-168v158q0 8 -5.5 14.5t-15.5 8.5q-10 -1 -16.5 -7.5t-6.5 -15.5v-140q0 -24 5 -36.5t15 -22.5q4 -4 8.5 -7.5t9.5 -8.5l120 -99q7 -6 13 -11t12 -9q17 -15 27 -33.5t10 -51.5v-196v-3.5v-2.5v-20t-2 -21q-4 -34 -30 -62t-106 -28l-10 -1h-126q-59 1 -84.5 24.5
t-33.5 51.5q-5 17 -6 33t-1 27v1.5v1.5v160h10v0z" />
    <glyph glyph-name="T" unicode="T" horiz-adv-x="434" 
d="M128 0v748h-100v92h10h368v-92h-100v-748h-10h-168v0z" />
    <glyph glyph-name="U" unicode="U" horiz-adv-x="511" 
d="M66 840h168v-735q0 -12 6 -18.5t15 -8.5q8 2 13 7t7 11q1 3 1.5 5t0.5 4v735h10h168v-716q0 -72 -26 -99t-57 -34q-12 -3 -24 -3.5t-22 -0.5l-10 -1h-134q-10 1 -22 1.5t-24 3.5q-30 7 -55 34.5t-25 97.5v717h10v0z" />
    <glyph glyph-name="V" unicode="V" horiz-adv-x="505" 
d="M138 -1l-110 841h10h169l48 -509l41 509h10h171l-107 -841h-10h-222v0z" />
    <glyph glyph-name="W" unicode="W" horiz-adv-x="815" 
d="M407 512l-43 -512h-10h-221l-105 840h10h172l42 -509l48 509h10h205l48 -509l42 509h10h172l-105 -840h-10h-221l-44 512v0z" />
    <glyph glyph-name="X" unicode="X" horiz-adv-x="498" 
d="M28 0l82 425l-82 415h10h171l36 -254l33 254h10h171l-79 -415l90 -425h-10h-172l-43 266l-36 -266h-10h-171v0z" />
    <glyph glyph-name="Y" unicode="Y" horiz-adv-x="499" 
d="M161 0v229l-133 611h10h177l35 -277l35 277h10h176l-132 -611v-229h-10h-168v0z" />
    <glyph glyph-name="Z" unicode="Z" horiz-adv-x="409" 
d="M28 0v104l155 644h-139v92h10h317v-109l-161 -639h171v-92h-10h-343v0z" />
    <glyph glyph-name="bracketleft" unicode="[" horiz-adv-x="296" 
d="M42 0v840h10h202v-92h-71v-656h71v-92h-10h-202v0z" />
    <glyph glyph-name="backslash" unicode="\" horiz-adv-x="405" 
d="M238 -77l-182 932h10h101l182 -932h-10h-101v0z" />
    <glyph glyph-name="bracketright" unicode="]" horiz-adv-x="304" 
d="M42 0v92h78v656h-78v92h10h210v-840h-10h-210v0z" />
    <glyph glyph-name="asciicircum" unicode="^" horiz-adv-x="538" 
d="M273 741l-207 -71h-10v112l155 58h10h107l154 -58v-112h-10l-199 71v0z" />
    <glyph glyph-name="underscore" unicode="_" horiz-adv-x="536" 
d="M10 -134h526v-90h-10h-526v90h10v0z" />
    <glyph glyph-name="grave" unicode="`" horiz-adv-x="261" 
d="M132 882l60 -154h-10h-101l-124 154h10h165v0z" />
    <glyph glyph-name="a" unicode="a" horiz-adv-x="427" 
d="M42 459v117q0 51 21 74t46 30q14 4 27.5 5t23.5 1h10h122q43 0 68 -28t25 -81v-577h-10h-142v26q-18 -16 -42 -27.5t-53 -11.5l-10 -1q-39 1 -57 19t-24 40q-4 15 -4.5 28.5t-0.5 21.5v1.5v0.5v170q0 24 11.5 42t36.5 34q13 8 28.5 16t35.5 17q2 1 4.5 2t4.5 2
q29 13 49.5 30.5t20.5 55.5v109q0 8 -6 14.5t-15 8.5q-8 -1 -13 -8t-5 -15v-116h-10h-142v0zM233 106v237q-23 -9 -30.5 -21t-8.5 -25v-6v-6v-1.5v-0.5v-177q0 -8 5.5 -14.5t13.5 -8.5q7 1 12 6t7 10q0 2 0.5 3.5t0.5 3.5v0z" />
    <glyph glyph-name="b" unicode="b" horiz-adv-x="427" 
d="M42 0v839h10h142v-188q18 14 42 24.5t53 10.5h10q43 0 60.5 -22t22.5 -49q2 -12 2.5 -24.5t0.5 -22.5v-462q0 -10 -0.5 -23t-3.5 -26q-6 -27 -24 -48.5t-61 -21.5l-10 -1q-23 1 -42.5 8t-33.5 16q-5 3 -9 6t-7 6v-22h-10h-142v0zM194 575v-478q0 -8 5.5 -14.5t14.5 -8.5
q8 2 13.5 8.5t5.5 14.5v478q0 8 -5.5 14.5t-13.5 8.5q-9 -2 -14.5 -8.5t-5.5 -14.5v0z" />
    <glyph glyph-name="c" unicode="c" horiz-adv-x="427" 
d="M243 238h142v-132q0 -85 -32.5 -102t-71.5 -17h-3.5h-2.5l-10 -1h-113q-8 1 -16.5 1.5t-17.5 1.5q-28 5 -52 27.5t-24 88.5v460q0 73 25 95t55 25q8 1 15 1h14h10h114q57 0 79.5 -22t27.5 -49q2 -11 2.5 -22.5t0.5 -20.5v-2v-2v-123h-10h-142v130q0 8 -6 14.5t-16 8.5
q-7 -2 -11 -7t-5 -10q-1 -2 -1 -3.5v-2.5v-479q0 -8 5 -14t13 -8q9 1 15 7.5t6 14.5v142h10v0z" />
    <glyph glyph-name="d" unicode="d" horiz-adv-x="427" 
d="M385 839v-839h-10h-142v22q-27 -22 -49.5 -28.5t-39.5 -6.5l-10 -1q-42 1 -61 22.5t-26 47.5q-3 15 -4 28.5t-1 23.5v465q0 9 0.5 19.5t1.5 20.5q5 27 23 50t65 23h10q9 0 17 -1t16 -3q14 -3 28 -10t30 -19v186h10h142v0zM194 576v-480q0 -7 5.5 -13.5t15.5 -8.5
q8 2 13 8.5t5 13.5v480q0 8 -5 14.5t-14 7.5q-9 -1 -14.5 -7.5t-5.5 -14.5v0z" />
    <glyph glyph-name="e" unicode="e" horiz-adv-x="427" 
d="M243 238h142v-137q0 -57 -20 -80t-44 -30q-12 -3 -22.5 -3.5t-19.5 -0.5l-10 -1h-118q-52 1 -74 20.5t-30 43.5q-4 14 -4.5 27t-0.5 22v1.5v0.5v469q0 57 30 86.5t79 29.5h10h117q5 0 20 -1.5t32 -10.5q21 -10 38 -33.5t17 -69.5v-268h-191v-207q0 -2 0.5 -3.5t0.5 -3.5
q2 -5 5.5 -9t9.5 -6q10 2 16.5 8.5t6.5 13.5v142h10v0zM194 378h39v198q0 8 -6.5 14.5t-16.5 7.5q-6 -2 -9.5 -6t-5.5 -9q0 -2 -0.5 -3.5t-0.5 -3.5v-198v0z" />
    <glyph glyph-name="f" unicode="f" horiz-adv-x="312" 
d="M77 0v580h-63v92h63v47q0 9 0.5 19.5t3.5 21.5q6 29 33.5 53.5t98.5 24.5h10h75v-87h-10q-33 0 -44.5 -11.5t-13.5 -25.5q-1 -4 -1 -8v-8v-26h69v-92h-69v-580h-10h-142v0z" />
    <glyph glyph-name="g" unicode="g" horiz-adv-x="427" 
d="M58 -78h139v-30q0 -7 4.5 -11.5t9.5 -6.5q1 0 2 -0.5t2 -0.5t2 0.5t2 0.5q5 2 9.5 6.5t4.5 12.5v161q-2 -1 -3.5 -2.5t-3.5 -2.5q-12 -9 -27.5 -17.5t-31.5 -13.5q-7 -2 -13.5 -3t-13.5 -1h-10q-38 0 -56.5 19t-24.5 42q-5 16 -6 30.5t-1 22.5v441q0 70 24.5 92.5
t54.5 24.5h4h4h10q19 0 42.5 -5.5t51.5 -31.5v23h10h142v-734q0 1 0 0.5v-0.5q0 -13 -0.5 -28t-3.5 -30q-6 -34 -31 -62t-87 -28l-10 -1h-96q-46 1 -69 20t-31 41q-6 15 -7.5 29.5t-1.5 22.5v20h10v0zM194 575v-450q0 -9 6.5 -14.5t14.5 -7.5q8 2 13 8t5 14v450q0 9 -5 15.5
t-13 7.5q-8 -1 -14.5 -6.5t-6.5 -16.5v0z" />
    <glyph glyph-name="h" unicode="h" horiz-adv-x="427" 
d="M42 0v841h10h142v-187q36 23 62 27.5t42 4.5h10q38 0 54 -20.5t20 -44.5q2 -12 2.5 -23.5t0.5 -20.5v-577h-10h-142v568q0 2 -0.5 4t-1.5 4q-1 5 -5.5 9t-11.5 6q-10 -2 -15 -8.5t-5 -14.5v-568h-10h-142v0z" />
    <glyph glyph-name="i" unicode="i" horiz-adv-x="235" 
d="M42 0v672h10h141v-672h-10h-141v0zM42 725v142h10h141v-142h-10h-141v0z" />
    <glyph glyph-name="j" unicode="j" horiz-adv-x="237" 
d="M42 -210v882h10h143v-882h-10h-143v0zM42 725v139h10h143v-139h-10h-143v0z" />
    <glyph glyph-name="k" unicode="k" horiz-adv-x="439" 
d="M42 0v838h10h142v-418l47 252h10h146l-73 -324l94 -348h-10h-144l-70 288v-288h-10h-142v0z" />
    <glyph glyph-name="l" unicode="l" horiz-adv-x="236" 
d="M42 0v839h10h142v-839h-10h-142v0z" />
    <glyph glyph-name="m" unicode="m" horiz-adv-x="618" 
d="M42 0v672h10h142v-24q3 3 7 5.5t8 5.5q16 10 37 18.5t46 8.5h10q10 0 21 -2.5t22 -9.5q7 -5 14 -11.5t13 -16.5q38 29 67 34.5t45 5.5h10q40 0 57 -23t22 -50q2 -13 2.5 -25t0.5 -22v-566h-10h-142v568q0 9 -5 15.5t-13 7.5q-9 -1 -15 -7.5t-6 -15.5v-568h-10h-142v569
q0 8 -5 14.5t-13 7.5q-9 -1 -15 -7t-6 -15v-569h-10h-142v0z" />
    <glyph glyph-name="n" unicode="n" horiz-adv-x="427" 
d="M42 0v672h10h142v-23q3 2 7 4.5t8 5.5q18 10 41.5 18.5t48.5 8.5h10q43 0 57.5 -24.5t17.5 -53.5q1 -8 1 -16.5v-16.5v-575h-10h-142v569q0 8 -5.5 14.5t-13.5 7.5q-8 -1 -14 -7t-6 -15v-569h-10h-142v0z" />
    <glyph glyph-name="o" unicode="o" horiz-adv-x="427" 
d="M42 105v459q0 55 22 80.5t48 34.5q13 4 26 5.5t23 1.5h10h95q49 0 74 -19.5t34 -43.5q8 -19 9.5 -35.5t1.5 -23.5v-459q0 -8 -1 -23.5t-8 -32.5q-9 -24 -33.5 -43t-76.5 -19l-10 -1h-95q-52 1 -76.5 20t-33.5 43q-7 17 -8 32.5t-1 23.5v0zM194 575v-478q0 -8 5.5 -14.5
t13.5 -8.5q6 1 10 5t7 8q1 3 2 5.5t1 4.5v478q0 2 -1 4.5t-2 5.5q-3 4 -7 8t-10 5q-8 -2 -13.5 -8.5t-5.5 -14.5v0z" />
    <glyph glyph-name="p" unicode="p" horiz-adv-x="427" 
d="M42 -224v896h10h142v-19q18 14 41.5 23.5t51.5 9.5h10q41 0 59.5 -22t24.5 -49q2 -13 3 -25.5t1 -22.5v-461q0 -10 -0.5 -22t-3.5 -24q-5 -28 -24.5 -50.5t-66.5 -22.5l-10 -1q-16 1 -39 7.5t-47 27.5v-245h-10h-142v0zM194 577v-481q0 -8 5.5 -14t12.5 -8q8 2 14.5 7
t6.5 15v481q0 10 -6.5 15.5t-14.5 6.5q-7 -1 -12.5 -7.5t-5.5 -14.5v0z" />
    <glyph glyph-name="q" unicode="q" horiz-adv-x="427" 
d="M375 -202h-142v223q-5 -4 -9.5 -8t-9.5 -7q-19 -11 -37 -15t-33 -4l-10 -1q-48 1 -66.5 25t-22.5 53q-2 11 -2.5 22t-0.5 20v461q0 10 0.5 22t3.5 24q5 28 22.5 50.5t58.5 22.5h10q26 0 51 -9t45 -24v19h10h142v-874h-10v0zM233 96v480q0 8 -5.5 14.5t-15.5 7.5
q-7 -1 -12.5 -7.5t-5.5 -14.5v-480q0 -8 5.5 -14t13.5 -8q9 2 14.5 8t5.5 14v0z" />
    <glyph glyph-name="r" unicode="r" horiz-adv-x="413" 
d="M52 672h142v-24q35 23 60 30.5t48 7.5h10q41 0 55 -23t17 -51q1 -10 1 -19v-17v-1.5v-0.5v-140h-10h-142v134q0 2 -0.5 4t-1.5 4q-1 5 -5.5 9t-11.5 6q-10 -2 -15 -8.5t-5 -14.5v-568h-10h-142v672h10v0z" />
    <glyph glyph-name="s" unicode="s" horiz-adv-x="431" 
d="M52 223h142v-124q0 -10 5.5 -16t12.5 -8h1.5t1.5 1q6 2 12 7.5t6 15.5v110q0 25 -9 36.5t-21 20.5q-2 1 -3.5 2t-2.5 2l-3.5 3.5t-3.5 2.5l-104 85q-11 9 -18.5 17t-12.5 16q-9 14 -10.5 29.5t-1.5 37.5v112q0 9 0.5 21t3.5 24q6 25 28.5 46.5t79.5 21.5h10h116
q50 0 72 -19t29 -41q5 -14 5.5 -27t0.5 -22v-1.5v-1.5v-106h-10h-142v105q0 2 -0.5 5t-2.5 7t-6 8t-10 5q-8 -1 -12 -5.5t-6 -9.5q-1 -3 -1.5 -5.5t-0.5 -4.5v-84q0 -19 10 -33t22 -24q4 -3 7 -5.5t6 -4.5l95 -72q12 -9 20 -17.5t14 -16.5q12 -18 15 -36.5t3 -41.5v-133
q0 -8 -1.5 -23.5t-7.5 -33.5q-9 -23 -31.5 -42t-67.5 -19l-10 -1h-122q-47 1 -69 20t-30 43q-6 17 -7 32.5t-1 23.5v118h10v0z" />
    <glyph glyph-name="t" unicode="t" horiz-adv-x="307" 
d="M14 584v88h57v166h10h141v-166h71v-88h-71v-442q0 -26 13.5 -39.5t34.5 -15.5q2 0 3.5 0.5t3.5 0.5q1 0 3 0.5t3 0.5h10v-103h-10h-93q-55 1 -80 20.5t-33 43.5q-4 15 -5 29t-1 23v1.5v1.5v479h-57v0z" />
    <glyph glyph-name="u" unicode="u" horiz-adv-x="427" 
d="M375 0h-142v21q-21 -16 -47.5 -25t-56.5 -9l-10 -1q-45 1 -59.5 28.5t-16.5 60.5q-1 6 -1 12v12v573h10h142v-568v-2.5t1 -3.5q1 -5 5 -10t11 -7q8 2 13 6t7 9q1 2 1.5 4t0.5 4v568h10h142v-672h-10v0z" />
    <glyph glyph-name="v" unicode="v" horiz-adv-x="407" 
d="M106 -7l-85 679h10h147l23 -356l26 356h10h149l-92 -679h-10h-178v0z" />
    <glyph glyph-name="w" unicode="w" horiz-adv-x="680" 
d="M117 0l-96 672h10h151l31 -378l55 378h10h129l59 -380l31 380h10h152l-102 -672h-10h-151l-58 339l-59 -339h-10h-152v0z" />
    <glyph glyph-name="x" unicode="x" horiz-adv-x="419" 
d="M21 0l61 351l-61 321h10h152l23 -226l22 226h10h150l-57 -321l67 -351h-10h-147l-35 259l-30 -259h-10h-145v0z" />
    <glyph glyph-name="y" unicode="y" horiz-adv-x="427" 
d="M62 -84h132v-36q0 -7 6 -13.5t15 -7.5q8 1 13 7.5t5 14.5v136q-17 -13 -41 -21.5t-52 -8.5l-10 -1q-39 1 -57.5 20.5t-25.5 43.5q-3 10 -4 20.5t-1 18.5v583h10h142v-572q0 -10 5 -17t14 -9q9 2 14.5 8.5t5.5 17.5v572h10h142v-715q0 -117 -37.5 -148.5t-86.5 -31.5
l-10 -1h-75q-60 1 -86 27t-34 57q-2 11 -3 21.5t-1 20.5v5.5v4.5v2.5v2.5l10 -1v0z" />
    <glyph glyph-name="z" unicode="z" horiz-adv-x="347" 
d="M21 0v99l131 485h-123v88h10h271v-99l-125 -485h141v-88h-10h-295v0z" />
    <glyph glyph-name="braceleft" unicode="{" horiz-adv-x="351" 
d="M248 681v-156q0 -41 -9.5 -68t-47.5 -37q38 -10 47.5 -36.5t9.5 -67.5v-157v-4v-4v-14.5t1 -15.5q1 -19 9 -34.5t30 -15.5h7v-69q-7 -1 -16 -1.5t-19 -0.5h-10q-9 0 -18.5 0.5t-19.5 2.5q-40 7 -73 36t-33 100v160q0 32 -7 56.5t-43 25.5v78q36 2 43 26t7 56v160
q0 70 32.5 99t71.5 37l20 2t20 1h10q10 0 19 -0.5t16 -1.5v-69h-2h-1h-2h-2q-22 0 -30 -15.5t-9 -34.5q-1 -8 -1 -15.5v-14.5v-4v-4v0z" />
    <glyph glyph-name="bar" unicode="|" horiz-adv-x="226" 
d="M56 -224v1225h10h104v-1225h-10h-104v0z" />
    <glyph glyph-name="braceright" unicode="}" horiz-adv-x="351" 
d="M103 159v157v3.5v3.5v18t2 20q3 19 15 35.5t40 23.5q-29 7 -40.5 24.5t-14.5 36.5q-2 10 -2 19.5v17.5v3.5v3.5v156q0 39 -6.5 64t-33.5 24h-7v69q11 2 20 2h18h10q63 0 92.5 -25.5t39.5 -56.5q6 -16 7.5 -30.5t1.5 -26.5v-160v-3.5v-4.5v-12t1 -14q2 -18 12 -33t37 -15
v-78q-27 0 -37 -15t-12 -33q-1 -7 -1 -14v-12v-4.5v-3.5v-160q0 -12 -1.5 -27t-7.5 -30q-10 -31 -40 -56.5t-93 -25.5h-10q-9 0 -18 0.5t-19 1.5v69h7q27 0 33.5 24.5t6.5 63.5v0z" />
    <glyph glyph-name="asciitilde" unicode="~" horiz-adv-x="546" 
d="M56 677v112q1 1 2 1.5l3 1.5q11 6 23 12.5t24 11.5q15 6 29.5 10t27.5 4h10q11 0 22.5 -0.5t23.5 -1.5q20 -3 39.5 -6.5t36.5 -9.5q5 -1 10 -3t10 -3q17 -5 37 -9.5t41 -5.5q7 1 17.5 4t21.5 8l6 2t6 3q11 4 20.5 8.5t13.5 6.5h10v-123q-4 -2 -9 -4l-10 -4
q-7 -3 -14 -5.5t-15 -4.5q-7 -3 -14.5 -4.5t-14.5 -2.5q-4 -1 -8.5 -1h-8.5h-10h-12t-11 1q-18 1 -30 3.5t-23 5.5q-7 2 -15 5t-17 6q-32 11 -52 15t-33 5q-10 0 -20.5 -2t-20.5 -5q-10 -2 -20 -5.5t-20 -6.5q-17 -6 -30 -12t-16 -7h-10v0z" />
    <glyph glyph-name="x" unicode="&#xd8;" horiz-adv-x="732" 
d="M56 0v840h10h168v-748h43v748h10h168v-748h43v748h10h168v-840h-10h-610v0z" />
    <glyph glyph-name="x" unicode="&#x428;" horiz-adv-x="732" 
d="M56 0v840h10h168v-748h43v748h10h168v-748h43v748h10h168v-840h-10h-610v0z" />
    <glyph glyph-name="p" unicode="&#xd0;" horiz-adv-x="497" 
d="M56 0v840h10h264h0.5h0.5q10 0 21.5 -0.5t22.5 -2.5q30 -6 55 -33t25 -102v-275q0 -78 -28 -104.5t-62 -31.5q-9 -1 -18 -1.5t-17 -0.5h-96v-289h-10h-168v0zM234 381h5q22 0 30 9.5t8 28.5v288q0 3 -0.5 7t-1.5 8q-2 10 -9.5 18t-24.5 8h-7v-367v0z" />
    <glyph glyph-name="p" unicode="&#x420;" horiz-adv-x="497" 
d="M56 0v840h10h264h0.5h0.5q10 0 21.5 -0.5t22.5 -2.5q30 -6 55 -33t25 -102v-275q0 -78 -28 -104.5t-62 -31.5q-9 -1 -18 -1.5t-17 -0.5h-96v-289h-10h-168v0zM234 381h5q22 0 30 9.5t8 28.5v288q0 3 -0.5 7t-1.5 8q-2 10 -9.5 18t-24.5 8h-7v-367v0z" />
    <glyph glyph-name="T" unicode="&#xb4;" 
 />
    <glyph glyph-name="bar" unicode="&#xdc;" horiz-adv-x="469" 
d="M28 0v840h10h168v-306h93q62 0 88 -22t34 -49q5 -14 5.5 -28t0.5 -24v-1.5v-0.5v-276v-0.5v-0.5q0 -11 -0.5 -23t-2.5 -24q-5 -32 -30.5 -58.5t-94.5 -26.5h-10h-261v0zM206 92h13q12 0 21 10t9 30v268v7.5t-1 8.5q-2 10 -8.5 18t-21.5 8h-12v-350v0z" />
    <glyph glyph-name="bar" unicode="&#x42c;" horiz-adv-x="469" 
d="M28 0v840h10h168v-306h93q62 0 88 -22t34 -49q5 -14 5.5 -28t0.5 -24v-1.5v-0.5v-276v-0.5v-0.5q0 -11 -0.5 -23t-2.5 -24q-5 -32 -30.5 -58.5t-94.5 -26.5h-10h-261v0zM206 92h13q12 0 21 10t9 30v268v7.5t-1 8.5q-2 10 -8.5 18t-21.5 8h-12v-350v0z" />
    <glyph glyph-name="V" unicode="&#xb6;" horiz-adv-x="541" 
d="M276 672v-952h-10h-84v700h-14q-70 0 -102.5 34.5t-36.5 76.5q-1 4 -1 7.5v7.5v5.5v5.5q4 43 36 79t104 36h10h98v0zM384 672h84v-952h-10h-84v952h10v0z" />
    <glyph glyph-name="z" unicode="&#xda;" horiz-adv-x="570" 
d="M129 0v748h-101v92h10h269v-310h93q11 0 24 -0.5t27 -4.5q29 -7 53 -32t24 -85v-276q0 -65 -25 -92t-55 -35q-14 -3 -27 -4t-24 -1h-10h-258v0zM307 92h12q13 0 22 10t9 30v264q0 19 -6.5 28t-13.5 12q-3 1 -6 1.5t-5 0.5h-12v-346v0z" />
    <glyph glyph-name="z" unicode="&#x42a;" horiz-adv-x="570" 
d="M129 0v748h-101v92h10h269v-310h93q11 0 24 -0.5t27 -4.5q29 -7 53 -32t24 -85v-276q0 -65 -25 -92t-55 -35q-14 -3 -27 -4t-24 -1h-10h-258v0zM307 92h12q13 0 22 10t9 30v264q0 19 -6.5 28t-13.5 12q-3 1 -6 1.5t-5 0.5h-12v-346v0z" />
    <glyph glyph-name="braceleft" unicode="&#xdb;" horiz-adv-x="686" 
d="M28 0v840h10h168v-308h94h0.5h0.5q11 0 24 -0.5t26 -3.5q29 -7 52.5 -32t23.5 -88v-282q0 -51 -20.5 -77t-45.5 -37q-19 -8 -36 -10t-25 -2h-10h-262v0zM206 92h13q12 0 21 10t9 30v266q0 20 -6.5 29t-13.5 12q-3 1 -6 1.5t-5 0.5h-12v-349v0zM466 0v840h10h168v-840h-10
h-168v0z" />
    <glyph glyph-name="braceleft" unicode="&#x42b;" horiz-adv-x="686" 
d="M28 0v840h10h168v-308h94h0.5h0.5q11 0 24 -0.5t26 -3.5q29 -7 52.5 -32t23.5 -88v-282q0 -51 -20.5 -77t-45.5 -37q-19 -8 -36 -10t-25 -2h-10h-262v0zM206 92h13q12 0 21 10t9 30v266q0 20 -6.5 29t-13.5 12q-3 1 -6 1.5t-5 0.5h-12v-349v0zM466 0v840h10h168v-840h-10
h-168v0z" />
    <glyph glyph-name="d" unicode="&#xc4;" horiz-adv-x="546" 
d="M29 -146l-1 237h31l73 749h10h272l74 -749h30v-237h-10h-168l-1 145h-132v-145h-10h-168v0zM236 91h73l-35 596l-38 -596v0z" />
    <glyph glyph-name="d" unicode="&#x414;" horiz-adv-x="546" 
d="M29 -146l-1 237h31l73 749h10h272l74 -749h30v-237h-10h-168l-1 145h-132v-145h-10h-168v0zM236 91h73l-35 596l-38 -596v0z" />
    <glyph glyph-name="h" unicode="&#xc8;" horiz-adv-x="535" 
d="M56 0v840h10h168v-338l67 338h10h168v-840h-10h-168v344l-67 -344h-10h-168v0z" />
    <glyph glyph-name="h" unicode="&#x418;" horiz-adv-x="535" 
d="M56 0v840h10h168v-338l67 338h10h168v-840h-10h-168v344l-67 -344h-10h-168v0z" />
    <glyph glyph-name="grave" unicode="&#xc0;" horiz-adv-x="505" 
d="M28 0l88 840h10h265l86 -840h-10h-164l-18 224h-68l-16 -224h-10h-163v0zM222 316h56l-28 405l-28 -405v0z" />
    <glyph glyph-name="grave" unicode="&#x410;" horiz-adv-x="505" 
d="M28 0l88 840h10h265l86 -840h-10h-164l-18 224h-68l-16 -224h-10h-163v0zM222 316h56l-28 405l-28 -405v0z" />
    <glyph glyph-name="l" unicode="&#xcc;" horiz-adv-x="790" 
d="M56 0v840h10h200l129 -533l129 533h10h200v-840h-10h-168v427l-86 -427h-10h-140l-86 427v-427h-10h-168v0z" />
    <glyph glyph-name="l" unicode="&#x41c;" horiz-adv-x="790" 
d="M56 0v840h10h200l129 -533l129 533h10h200v-840h-10h-168v427l-86 -427h-10h-140l-86 427v-427h-10h-168v0z" />
    <glyph glyph-name="quotedbl" unicode="&#xe2;" horiz-adv-x="427" 
d="M42 0v672h10h211q54 0 78 -17.5t31 -39.5q5 -12 5.5 -24t0.5 -20v-0.5v-1.5v-136q0 -39 -19.5 -57t-42.5 -23q-5 -1 -10.5 -1.5t-10.5 -0.5h-2h-2h-2h-2v-5q56 -2 75 -19.5t22 -38.5q1 -6 1 -12.5v-12.5v-3.5v-3.5v-153q0 -6 -0.5 -12.5t-0.5 -13.5q-4 -29 -27.5 -53
t-93.5 -24h-10h-211v0zM194 88h7q13 0 22.5 9.5t9.5 25.5v134q0 4 -0.5 10t-2.5 13q-3 10 -11 18t-25 9v-219v0zM194 584v-213q19 2 29 15t10 33v132q0 2 -0.5 6.5t-2.5 9.5q-3 6 -9.5 11.5t-19.5 5.5h-7v0z" />
    <glyph glyph-name="quotedbl" unicode="&#x432;" horiz-adv-x="427" 
d="M42 0v672h10h211q54 0 78 -17.5t31 -39.5q5 -12 5.5 -24t0.5 -20v-0.5v-1.5v-136q0 -39 -19.5 -57t-42.5 -23q-5 -1 -10.5 -1.5t-10.5 -0.5h-2h-2h-2h-2v-5q56 -2 75 -19.5t22 -38.5q1 -6 1 -12.5v-12.5v-3.5v-3.5v-153q0 -6 -0.5 -12.5t-0.5 -13.5q-4 -29 -27.5 -53
t-93.5 -24h-10h-211v0zM194 88h7q13 0 22.5 9.5t9.5 25.5v134q0 4 -0.5 10t-2.5 13q-3 10 -11 18t-25 9v-219v0zM194 584v-213q19 2 29 15t10 33v132q0 2 -0.5 6.5t-2.5 9.5q-3 6 -9.5 11.5t-19.5 5.5h-7v0z" />
    <glyph glyph-name="t" unicode="&#xd4;" horiz-adv-x="716" 
d="M269 0v87h-94q-9 0 -19.5 1t-21.5 3q-29 7 -53.5 34.5t-24.5 94.5v453q0 60 22 87t48 35q13 5 26 6t23 1h94v59h10h168v-59h96q51 0 75.5 -21.5t33.5 -47.5q6 -18 7 -34.5t1 -25.5v-453q0 -64 -23 -92t-51 -36q-11 -3 -22 -4t-21 -1h-96v-87h-10h-168v0zM269 178v533
q-15 -1 -22 -8.5t-10 -15.5q-2 -7 -2.5 -13t-0.5 -9v-440v0v-1q0 -2 0.5 -8.5t2.5 -13.5q3 -8 10.5 -15t21.5 -9v0zM447 710v-532q17 2 26 14t9 32v441q0 20 -9 32t-26 13v0v0z" />
    <glyph glyph-name="t" unicode="&#x424;" horiz-adv-x="716" 
d="M269 0v87h-94q-9 0 -19.5 1t-21.5 3q-29 7 -53.5 34.5t-24.5 94.5v453q0 60 22 87t48 35q13 5 26 6t23 1h94v59h10h168v-59h96q51 0 75.5 -21.5t33.5 -47.5q6 -18 7 -34.5t1 -25.5v-453q0 -64 -23 -92t-51 -36q-11 -3 -22 -4t-21 -1h-96v-87h-10h-168v0zM269 178v533
q-15 -1 -22 -8.5t-10 -15.5q-2 -7 -2.5 -13t-0.5 -9v-440v0v-1q0 -2 0.5 -8.5t2.5 -13.5q3 -8 10.5 -15t21.5 -9v0zM447 710v-532q17 2 26 14t9 32v441q0 20 -9 32t-26 13v0v0z" />
    <glyph glyph-name="U" unicode="&#xb5;" horiz-adv-x="428" 
d="M376 0h-142v19q-3 -2 -6.5 -3.5t-8.5 -1.5h-10q-4 0 -8 1.5t-7 3.5v-243h-10h-142v323v573h10h142v-563q0 -8 5.5 -14.5t14.5 -8.5q9 2 14.5 8.5t5.5 14.5v563h10h142v-672h-10v0z" />
    <glyph glyph-name="e" unicode="&#xc5;" horiz-adv-x="456" 
d="M56 0v840h10h341v-92h-173v-266h173v-92h-173v-298h180v-92h-10h-348v0z" />
    <glyph glyph-name="e" unicode="&#x415;" horiz-adv-x="456" 
d="M56 0v840h10h341v-92h-173v-266h173v-92h-173v-298h180v-92h-10h-348v0z" />
    <glyph glyph-name="i" unicode="&#xc9;" horiz-adv-x="535" 
d="M56 0v840h10h168v-338l67 338h10h168v-840h-10h-168v344l-67 -344h-10h-168v0zM100 1001h141v-31q0 -10 7 -19t18 -11q11 2 18 11t7 19v31h10h141v-24q0 -7 -0.5 -15.5t-2.5 -17.5q-5 -24 -26.5 -44t-75.5 -20h-10h-133q-54 0 -75 20t-26 44q-2 9 -2.5 17.5t-0.5 15.5v24
h10v0z" />
    <glyph glyph-name="i" unicode="&#x419;" horiz-adv-x="535" 
d="M56 0v840h10h168v-338l67 338h10h168v-840h-10h-168v344l-67 -344h-10h-168v0zM100 1001h141v-31q0 -10 7 -19t18 -11q11 2 18 11t7 19v31h10h141v-24q0 -7 -0.5 -15.5t-2.5 -17.5q-5 -24 -26.5 -44t-75.5 -20h-10h-133q-54 0 -75 20t-26 44q-2 9 -2.5 17.5t-0.5 15.5v24
h10v0z" />
    <glyph glyph-name="a" unicode="&#xc1;" horiz-adv-x="511" 
d="M56 0v840h10h364v-92h-196v-265h86q11 0 25 -1t28 -4q31 -7 56.5 -33t25.5 -87v-227q0 -10 -1.5 -26.5t-8.5 -33.5q-10 -27 -38.5 -49t-88.5 -22h-10h-252v0zM234 92h12h3.5t2.5 1q10 2 17.5 11t7.5 30v213q0 3 -0.5 8.5t-1.5 11.5q-3 9 -9.5 16.5t-20.5 7.5h-11v-299v0z
" />
    <glyph glyph-name="a" unicode="&#x411;" horiz-adv-x="511" 
d="M56 0v840h10h364v-92h-196v-265h86q11 0 25 -1t28 -4q31 -7 56.5 -33t25.5 -87v-227q0 -10 -1.5 -26.5t-8.5 -33.5q-10 -27 -38.5 -49t-88.5 -22h-10h-252v0zM234 92h12h3.5t2.5 1q10 2 17.5 11t7.5 30v213q0 3 -0.5 8.5t-1.5 11.5q-3 9 -9.5 16.5t-20.5 7.5h-11v-299v0z
" />
    <glyph glyph-name="m" unicode="&#xcd;" horiz-adv-x="508" 
d="M56 0v840h10h168v-354h40v354h10h168v-840h-10h-168v394h-40v-394h-10h-168v0z" />
    <glyph glyph-name="m" unicode="&#x41d;" horiz-adv-x="508" 
d="M56 0v840h10h168v-354h40v354h10h168v-840h-10h-168v394h-40v-394h-10h-168v0z" />
    <glyph glyph-name="u" unicode="&#xd5;" horiz-adv-x="498" 
d="M28 0l82 425l-82 415h10h171l36 -254l33 254h10h171l-79 -415l90 -425h-10h-172l-43 266l-36 -266h-10h-171v0z" />
    <glyph glyph-name="u" unicode="&#x425;" horiz-adv-x="498" 
d="M28 0l82 425l-82 415h10h171l36 -254l33 254h10h171l-79 -415l90 -425h-10h-172l-43 266l-36 -266h-10h-171v0z" />
    <glyph glyph-name="y" unicode="&#xd9;" horiz-adv-x="740" 
d="M56 0v840h10h168v-748h43v748h10h168v-748h43v748h10h168v-745h36v-239h-10h-168v144h-478v0z" />
    <glyph glyph-name="y" unicode="&#x429;" horiz-adv-x="740" 
d="M56 0v840h10h168v-748h43v748h10h168v-748h43v748h10h168v-745h36v-239h-10h-168v144h-478v0z" />
    <glyph glyph-name="q" unicode="&#xd1;" horiz-adv-x="498" 
d="M288 294h168v-171q0 -11 -0.5 -24.5t-2.5 -26.5q-6 -32 -30.5 -58.5t-89.5 -26.5l-10 -1h-142q-9 1 -18 1.5t-19 1.5q-33 5 -60.5 31t-27.5 102v586v2v2q0 12 0.5 27t4.5 31q8 29 33.5 53t85.5 24h10h142q9 0 20 -0.5t21 -2.5q31 -5 57 -32.5t26 -103.5v-151h-10h-168
v179v1.5v1.5q-1 8 -7 14.5t-15 8.5q-9 -2 -14 -7.5t-7 -11.5q0 -2 -0.5 -3.5t-0.5 -3.5v-632q0 -2 0.5 -3.5t0.5 -3.5q2 -6 7 -11.5t14 -7.5q9 2 15 8.5t7 14.5v1.5v1.5v190h10v0z" />
    <glyph glyph-name="q" unicode="&#x421;" horiz-adv-x="498" 
d="M288 294h168v-171q0 -11 -0.5 -24.5t-2.5 -26.5q-6 -32 -30.5 -58.5t-89.5 -26.5l-10 -1h-142q-9 1 -18 1.5t-19 1.5q-33 5 -60.5 31t-27.5 102v586v2v2q0 12 0.5 27t4.5 31q8 29 33.5 53t85.5 24h10h142q9 0 20 -0.5t21 -2.5q31 -5 57 -32.5t26 -103.5v-151h-10h-168
v179v1.5v1.5q-1 8 -7 14.5t-15 8.5q-9 -2 -14 -7.5t-7 -11.5q0 -2 -0.5 -3.5t-0.5 -3.5v-632q0 -2 0.5 -3.5t0.5 -3.5q2 -6 7 -11.5t14 -7.5q9 2 15 8.5t7 14.5v1.5v1.5v190h10v0z" />
    <glyph glyph-name="braceright" unicode="&#xdd;" horiz-adv-x="497" 
d="M52 294h168v-193q0 -10 6 -15.5t12 -6.5q1 -1 1.5 -1h1.5q10 2 16 7.5t6 15.5v289h-124v92h124v257q0 8 -5.5 14.5t-16.5 8.5q-9 -1 -15 -7.5t-6 -15.5v-171h-10h-161v144q0 11 1 28.5t7 36.5q9 29 35 53t83 24h10h131q10 0 22 -0.5t24 -3.5q30 -8 54.5 -36.5
t24.5 -102.5v-585q0 -11 -1 -28t-6 -35q-9 -29 -34.5 -52.5t-81.5 -23.5l-10 -1h-133q-67 1 -94 26.5t-34 57.5q-4 15 -4.5 29t-0.5 26v169h10v0z" />
    <glyph glyph-name="braceright" unicode="&#x42d;" horiz-adv-x="497" 
d="M52 294h168v-193q0 -10 6 -15.5t12 -6.5q1 -1 1.5 -1h1.5q10 2 16 7.5t6 15.5v289h-124v92h124v257q0 8 -5.5 14.5t-16.5 8.5q-9 -1 -15 -7.5t-6 -15.5v-171h-10h-161v144q0 11 1 28.5t7 36.5q9 29 35 53t83 24h10h131q10 0 22 -0.5t24 -3.5q30 -8 54.5 -36.5
t24.5 -102.5v-585q0 -11 -1 -28t-6 -35q-9 -29 -34.5 -52.5t-81.5 -23.5l-10 -1h-133q-67 1 -94 26.5t-34 57.5q-4 15 -4.5 29t-0.5 26v169h10v0z" />
    <glyph glyph-name="periodcentered" unicode="&#x2219;" horiz-adv-x="276" 
d="M56 345v151h10h154v-151h-10h-154v0z" />
    <glyph glyph-name="f" unicode="&#xc6;" horiz-adv-x="707" 
d="M28 0l99 429l-95 411h10h176l52 -333v333h10h157v-330l57 330h10h169l-95 -411l101 -429h-10h-168l-64 337v-337h-10h-157v337l-66 -337h-10h-166v0z" />
    <glyph glyph-name="f" unicode="&#x416;" horiz-adv-x="707" 
d="M28 0l99 429l-95 411h10h176l52 -333v333h10h157v-330l57 330h10h169l-95 -411l101 -429h-10h-168l-64 337v-337h-10h-157v337l-66 -337h-10h-166v0z" />
    <glyph glyph-name="j" unicode="&#xca;" horiz-adv-x="508" 
d="M56 0v840h10h168v-301l52 301h10h167l-85 -405l102 -435h-10h-166l-70 340v-340h-10h-168v0z" />
    <glyph glyph-name="j" unicode="&#x41a;" horiz-adv-x="508" 
d="M56 0v840h10h168v-301l52 301h10h167l-85 -405l102 -435h-10h-166l-70 340v-340h-10h-168v0z" />
    <glyph glyph-name="b" unicode="&#xc2;" horiz-adv-x="512" 
d="M56 0v840h10h252q64 0 90.5 -24.5t34.5 -54.5q4 -15 4.5 -30t0.5 -26v-0.5v-0.5v-168q0 -51 -29.5 -74t-65.5 -28q-5 0 -10 -0.5t-10 -0.5h-3v-8h2.5h2.5h2.5h2.5q5 0 11 -0.5t11 -0.5q35 -5 64.5 -27.5t29.5 -71.5v-195q0 -59 -25.5 -86t-56.5 -37q-16 -4 -31 -5.5
t-27 -1.5h-10h-250v0zM234 92h6q17 0 27.5 12t10.5 30v215q0 26 -11 36.5t-25 10.5h-8v-304v0zM234 476h6q17 0 25 7t11 15q1 5 1.5 9.5t0.5 7.5v192q0 19 -11 30t-28 11h-5v-272v0z" />
    <glyph glyph-name="b" unicode="&#x412;" horiz-adv-x="512" 
d="M56 0v840h10h252q64 0 90.5 -24.5t34.5 -54.5q4 -15 4.5 -30t0.5 -26v-0.5v-0.5v-168q0 -51 -29.5 -74t-65.5 -28q-5 0 -10 -0.5t-10 -0.5h-3v-8h2.5h2.5h2.5h2.5q5 0 11 -0.5t11 -0.5q35 -5 64.5 -27.5t29.5 -71.5v-195q0 -59 -25.5 -86t-56.5 -37q-16 -4 -31 -5.5
t-27 -1.5h-10h-250v0zM234 92h6q17 0 27.5 12t10.5 30v215q0 26 -11 36.5t-25 10.5h-8v-304v0zM234 476h6q17 0 25 7t11 15q1 5 1.5 9.5t0.5 7.5v192q0 19 -11 30t-28 11h-5v-272v0z" />
    <glyph glyph-name="n" unicode="&#xce;" horiz-adv-x="511" 
d="M455 704v-574v-0.5v-0.5q0 -12 -0.5 -25t-2.5 -26q-5 -35 -29.5 -63t-92.5 -28l-10 -1h-140q-62 1 -87.5 27t-32.5 58q-3 16 -3.5 31t-0.5 27v0.5v0.5v574q0 12 0.5 25.5t3.5 27.5q6 37 31 67t90 30h10h139q10 0 20.5 -0.5t21.5 -3.5q31 -7 57 -37.5t26 -108.5v0z
M234 734v-628q0 -12 6.5 -18.5t14.5 -8.5q8 2 15 9.5t7 17.5v628v1.5v1.5q-1 9 -6.5 16t-15.5 9q-10 -2 -15.5 -9.5t-5.5 -18.5v0z" />
    <glyph glyph-name="n" unicode="&#x41e;" horiz-adv-x="511" 
d="M455 704v-574v-0.5v-0.5q0 -12 -0.5 -25t-2.5 -26q-5 -35 -29.5 -63t-92.5 -28l-10 -1h-140q-62 1 -87.5 27t-32.5 58q-3 16 -3.5 31t-0.5 27v0.5v0.5v574q0 12 0.5 25.5t3.5 27.5q6 37 31 67t90 30h10h139q10 0 20.5 -0.5t21.5 -3.5q31 -7 57 -37.5t26 -108.5v0z
M234 734v-628q0 -12 6.5 -18.5t14.5 -8.5q8 2 15 9.5t7 17.5v628v1.5v1.5q-1 9 -6.5 16t-15.5 9q-10 -2 -15.5 -9.5t-5.5 -18.5v0z" />
    <glyph glyph-name="asterisk" unicode="&#xea;" horiz-adv-x="437" 
d="M42 0v672h10h142v-240l44 240h10h144l-71 -324l95 -348h-10h-146l-66 269v-269h-10h-142v0z" />
    <glyph glyph-name="asterisk" unicode="&#x43a;" horiz-adv-x="437" 
d="M42 0v672h10h142v-240l44 240h10h144l-71 -324l95 -348h-10h-146l-66 269v-269h-10h-142v0z" />
    <glyph glyph-name="g" unicode="&#xc7;" horiz-adv-x="521" 
d="M66 294h168v-193q0 -11 6 -18t16 -9q9 1 14 5t7 9q2 4 2.5 8t0.5 5v233v6.5t-1 7.5q-2 15 -15.5 28t-53.5 13h-68v92h70q46 0 55.5 16.5t9.5 45.5v203v1.5v1.5q-1 7 -6 13t-13 7q-12 -1 -18 -8t-6 -15v-172h-10h-162v142q0 11 1 25.5t5 29.5q9 31 36 57t89 26h10h133
q74 0 97.5 -31t27.5 -68q1 -9 1 -19v-19v-173q0 -6 -1.5 -19t-8.5 -28q-9 -19 -32 -35t-69 -16v-12h2h2h1h2q48 0 70.5 -17.5t29.5 -37.5q5 -12 6 -22.5t1 -18.5v-215q0 -83 -31 -107.5t-68 -27.5q-7 -1 -15 -1h-15l-10 -1h-138q-11 1 -24.5 1.5t-27.5 4.5q-30 7 -55 34
t-25 97v171h10v0z" />
    <glyph glyph-name="g" unicode="&#x417;" horiz-adv-x="521" 
d="M66 294h168v-193q0 -11 6 -18t16 -9q9 1 14 5t7 9q2 4 2.5 8t0.5 5v233v6.5t-1 7.5q-2 15 -15.5 28t-53.5 13h-68v92h70q46 0 55.5 16.5t9.5 45.5v203v1.5v1.5q-1 7 -6 13t-13 7q-12 -1 -18 -8t-6 -15v-172h-10h-162v142q0 11 1 25.5t5 29.5q9 31 36 57t89 26h10h133
q74 0 97.5 -31t27.5 -68q1 -9 1 -19v-19v-173q0 -6 -1.5 -19t-8.5 -28q-9 -19 -32 -35t-69 -16v-12h2h2h1h2q48 0 70.5 -17.5t29.5 -37.5q5 -12 6 -22.5t1 -18.5v-215q0 -83 -31 -107.5t-68 -27.5q-7 -1 -15 -1h-15l-10 -1h-138q-11 1 -24.5 1.5t-27.5 4.5q-30 7 -55 34
t-25 97v171h10v0z" />
    <glyph glyph-name="k" unicode="&#xcb;" horiz-adv-x="535" 
d="M28 -14v102h3q35 0 44 15.5t12 34.5v1.5v1.5l70 699h10h279l61 -840h-10h-169l-29 668h-1l-33 -541q-1 -12 -2.5 -27.5t-5.5 -31.5q-8 -31 -33 -56t-82 -25l-10 -1h-104v0z" />
    <glyph glyph-name="k" unicode="&#x41b;" horiz-adv-x="535" 
d="M28 -14v102h3q35 0 44 15.5t12 34.5v1.5v1.5l70 699h10h279l61 -840h-10h-169l-29 668h-1l-33 -541q-1 -12 -2.5 -27.5t-5.5 -31.5q-8 -31 -33 -56t-82 -25l-10 -1h-104v0z" />
    <glyph glyph-name="c" unicode="&#xc3;" horiz-adv-x="415" 
d="M56 0v840h10h321v-92h-153v-748h-10h-168v0z" />
    <glyph glyph-name="c" unicode="&#x413;" horiz-adv-x="415" 
d="M56 0v840h10h321v-92h-153v-748h-10h-168v0z" />
    <glyph glyph-name="o" unicode="&#xcf;" horiz-adv-x="512" 
d="M56 0v840h10h390v-840h-10h-168v748h-44v-748h-10h-168v0z" />
    <glyph glyph-name="o" unicode="&#x41f;" horiz-adv-x="512" 
d="M56 0v840h10h390v-840h-10h-168v748h-44v-748h-10h-168v0z" />
    <glyph glyph-name="three" unicode="&#xf3;" horiz-adv-x="427" 
d="M62 -84h132v-36q0 -7 6 -13.5t15 -7.5q8 1 13 7.5t5 14.5v136q-17 -13 -41 -21.5t-52 -8.5l-10 -1q-39 1 -57.5 20.5t-25.5 43.5q-3 10 -4 20.5t-1 18.5v583h10h142v-572q0 -10 5 -17t14 -9q9 2 14.5 8.5t5.5 17.5v572h10h142v-715q0 -117 -37.5 -148.5t-86.5 -31.5
l-10 -1h-75q-60 1 -86 27t-34 57q-2 11 -3 21.5t-1 20.5v5.5v4.5v2.5v2.5l10 -1v0z" />
    <glyph glyph-name="three" unicode="&#x443;" horiz-adv-x="427" 
d="M62 -84h132v-36q0 -7 6 -13.5t15 -7.5q8 1 13 7.5t5 14.5v136q-17 -13 -41 -21.5t-52 -8.5l-10 -1q-39 1 -57.5 20.5t-25.5 43.5q-3 10 -4 20.5t-1 18.5v583h10h142v-572q0 -10 5 -17t14 -9q9 2 14.5 8.5t5.5 17.5v572h10h142v-715q0 -117 -37.5 -148.5t-86.5 -31.5
l-10 -1h-75q-60 1 -86 27t-34 57q-2 11 -3 21.5t-1 20.5v5.5v4.5v2.5v2.5l10 -1v0z" />
    <glyph glyph-name="S" unicode="&#xb3;" horiz-adv-x="235" 
d="M42 0v672h10h141v-672h-10h-141v0zM42 725v142h10h141v-142h-10h-141v0z" />
    <glyph glyph-name="underscore" unicode="&#xbf;" horiz-adv-x="238" 
d="M44 0v672h10h141v-672h-10h-141v0zM-51 731v139h10h139v-139h-10h-139v0zM138 731v139h10h139v-139h-10h-139v0z" />
    <glyph glyph-name="bracketleft" unicode="&#xbb;" horiz-adv-x="469" 
d="M179 90h-123l50 251l-50 248h10h123l51 -258l-51 -241h-10v0zM352 90h-123l50 251l-50 248h10h123l51 -258l-51 -241h-10v0z" />
    <glyph glyph-name="bracketright" unicode="&#xbd;" horiz-adv-x="513" 
d="M66 285h168v-184q0 -10 6 -15.5t12 -6.5q1 -1 1.5 -1h1.5q10 2 16 8.5t6 14.5v162q0 22 -7 31.5t-17 16.5q-5 3 -10 6.5t-10 7.5l-116 95q-19 16 -29.5 28t-15.5 23t-6 23.5t-1 29.5v3.5v3.5v180q0 104 37 123.5t82 19.5h10h133h11.5h11.5q40 -2 73.5 -26.5t33.5 -115.5
v-131h-10h-168v158q0 8 -5.5 14.5t-15.5 8.5q-10 -1 -16.5 -7.5t-6.5 -15.5v-140q0 -24 5 -36.5t15 -22.5q4 -4 8.5 -7.5t9.5 -8.5l120 -99q7 -6 13 -11t12 -9q17 -15 27 -33.5t10 -51.5v-196v-3.5v-2.5v-20t-2 -21q-4 -34 -30 -62t-106 -28l-10 -1h-126q-59 1 -84.5 24.5
t-33.5 51.5q-5 17 -6 33t-1 27v1.5v1.5v160h10v0z" />
    <glyph glyph-name="space" 
 />
    <glyph glyph-name="two" unicode="&#xf2;" horiz-adv-x="408" 
d="M128 0v584h-107v88h10h356v-88h-107v-584h-10h-142v0z" />
    <glyph glyph-name="two" unicode="&#x442;" horiz-adv-x="408" 
d="M128 0v584h-107v88h10h356v-88h-107v-584h-10h-142v0z" />
    <glyph glyph-name="asciitilde" unicode="&#xde;" horiz-adv-x="737" 
d="M234 487h48v217q0 12 0.5 25.5t3.5 27.5q6 37 31.5 67t89.5 30h10h139q64 0 89.5 -30t31.5 -67q3 -14 3.5 -27.5t0.5 -25.5v-574v-0.5v-0.5q0 -12 -0.5 -27t-3.5 -31q-7 -32 -32 -58t-88 -26l-10 -1h-140q-64 1 -89 27.5t-32 58.5q-3 16 -3.5 30.5t-0.5 26.5v0.5v0.5v266
h-48v-396h-10h-168v840h10h168v-353v0zM460 734v-628q0 -10 7 -17.5t15 -9.5q8 2 14.5 8.5t6.5 18.5v628q0 11 -5.5 18.5t-15.5 9.5q-10 -2 -15.5 -9t-6.5 -16v-1.5v-1.5v0z" />
    <glyph glyph-name="asciitilde" unicode="&#x42e;" horiz-adv-x="737" 
d="M234 487h48v217q0 12 0.5 25.5t3.5 27.5q6 37 31.5 67t89.5 30h10h139q64 0 89.5 -30t31.5 -67q3 -14 3.5 -27.5t0.5 -25.5v-574v-0.5v-0.5q0 -12 -0.5 -27t-3.5 -31q-7 -32 -32 -58t-88 -26l-10 -1h-140q-64 1 -89 27.5t-32 58.5q-3 16 -3.5 30.5t-0.5 26.5v0.5v0.5v266
h-48v-396h-10h-168v840h10h168v-353v0zM460 734v-628q0 -10 7 -17.5t15 -9.5q8 2 14.5 8.5t6.5 18.5v628q0 11 -5.5 18.5t-15.5 9.5q-10 -2 -15.5 -9t-6.5 -16v-1.5v-1.5v0z" />
    <glyph glyph-name="I" unicode="&#xa9;" horiz-adv-x="870" 
d="M814 622v-553q0 -95 -21 -159.5t-122 -64.5l-10 -1h-463q-102 1 -122 66t-20 159v553q0 149 39 187t152 38h10h365q128 0 160 -46.5t32 -178.5v0zM301 -75h267q1 1 2.5 1h3.5q39 0 70.5 13t31.5 91v631q0 64 -22.5 84.5t-85.5 20.5h-267q-81 0 -94.5 -34t-13.5 -112v-554
q0 -100 23 -120t85 -20v-1zM465 250h139v-138v-0.5v-0.5q0 -9 -0.5 -19.5t-2.5 -20.5q-4 -26 -24.5 -47.5t-74.5 -21.5h-10h-119q-58 0 -78.5 23t-24.5 51q-1 9 -1.5 18t-0.5 17v472v1.5v1.5q0 9 0.5 20.5t3.5 23.5q5 24 26 44.5t74 20.5h10h120q51 0 72 -20t26 -43
q3 -12 3.5 -23.5t0.5 -20.5v-2v-2v-122h-10h-139v141q0 8 -4.5 12.5t-10.5 6.5l-0.5 0.5t-1.5 0.5h-1.5h-0.5q-6 -2 -10.5 -7t-4.5 -13v-517q0 -7 5 -12.5t12 -7.5q8 2 12.5 7.5t4.5 12.5v164h10v0z" />
    <glyph glyph-name="H" unicode="&#xa8;" horiz-adv-x="463" 
d="M56 0v840h10h341v-92h-173v-266h173v-92h-173v-298h180v-92h-10h-348v0zM57 879v121h10h138v-121h-10h-138v0zM244 879v121h10h139v-121h-10h-139v0z" />
    <glyph glyph-name="J" unicode="&#xaa;" horiz-adv-x="497" 
d="M441 294v-169q0 -12 -0.5 -26t-3.5 -29q-7 -32 -34.5 -57.5t-95.5 -25.5l-10 -1h-132q-56 1 -81.5 24.5t-34.5 52.5q-5 18 -6 35t-1 28v585q0 74 24.5 102.5t54.5 36.5q12 3 24 3.5t22 0.5h10h130q57 0 83.5 -24t35.5 -53q6 -19 7 -36.5t1 -28.5v-144h-10h-161v171
q0 9 -6 15.5t-15 7.5q-11 -2 -16.5 -8.5t-5.5 -14.5v-257h124v-92h-124v-289q0 -10 6 -15.5t16 -7.5h1.5t1.5 1q6 1 12 6.5t6 15.5v193h10h168v0z" />
    <glyph glyph-name="quoteright" unicode="&#x2019;" horiz-adv-x="261" 
d="M219 881v-152q0 -39 -14 -68.5t-30 -50.5q-5 -5 -9 -9.5t-8 -8.5h-10h-106q26 26 45.5 60t23.5 77h-55v152h10h153v0z" />
    <glyph glyph-name="OE" unicode="&#x152;" 
 />
    <glyph glyph-name="s" 
 />
    <glyph glyph-name="r" unicode="&#xd3;" horiz-adv-x="511" 
d="M80 -14v101h28q35 0 49 13.5t18 30.5l2 10t1 9l4 47l-154 643h10h177l49 -373l39 373h10h170l-132 -713q-18 -98 -56 -119t-101 -21l-10 -1h-104v0z" />
    <glyph glyph-name="r" unicode="&#x423;" horiz-adv-x="511" 
d="M80 -14v101h28q35 0 49 13.5t18 30.5l2 10t1 9l4 47l-154 643h10h177l49 -373l39 373h10h170l-132 -713q-18 -98 -56 -119t-101 -21l-10 -1h-104v0z" />
    <glyph glyph-name="Scaron" unicode="&#xd2;" horiz-adv-x="434" 
d="M128 0v748h-100v92h10h368v-92h-100v-748h-10h-168v0z" />
    <glyph glyph-name="Scaron" unicode="&#x422;" horiz-adv-x="434" 
d="M128 0v748h-100v92h10h368v-92h-100v-748h-10h-168v0z" />
    <glyph glyph-name="backslash" 
 />
    <glyph glyph-name="perthousand" unicode="&#x160;" 
 />
    <glyph glyph-name="nine" 
 />
    <glyph glyph-name="colon" 
 />
    <glyph glyph-name="w" unicode="&#xbc;" horiz-adv-x="237" 
d="M42 -210v882h10h143v-882h-10h-143v0zM42 725v139h10h143v-139h-10h-143v0z" />
    <glyph glyph-name="v" unicode="&#x2030;" horiz-adv-x="1117" 
d="M607 -15h-102q-6 1 -12 1t-12 1q-28 2 -51 20.5t-23 79.5v149q0 8 0.5 18t2.5 20q5 22 25 41t70 19h10h102q8 0 17 -0.5t19 -2.5q23 -6 42 -26t19 -69v-149q0 -54 -19.5 -74t-43.5 -24q-9 -2 -17.5 -2.5t-16.5 -0.5l-10 -1v0zM540 249v-177q0 -9 6.5 -16t13.5 -9h1.5
t1.5 1q6 2 12 8t6 16v177q0 8 -5.5 15.5t-14.5 9.5q-9 -2 -14 -7.5t-6 -11.5q-1 -2 -1 -3.5v-2.5v0zM968 -15h-102q-6 1 -12 1t-12 1q-28 2 -51 20.5t-23 79.5v149q0 8 0.5 18t2.5 20q5 22 25 41t70 19h10h102q8 0 17 -0.5t19 -2.5q23 -6 42 -26t19 -69v-149
q0 -54 -19.5 -74t-43.5 -24q-9 -2 -17.5 -2.5t-16.5 -0.5l-10 -1v0zM901 249v-177q0 -9 6.5 -16t13.5 -9h1.5t1.5 1q6 2 12 8t6 16v177q0 8 -5.5 15.5t-14.5 9.5q-9 -2 -14 -7.5t-6 -11.5q-1 -2 -1 -3.5v-2.5v0zM113 0l383 840h10h141l-384 -840h-10h-140v0zM240 496h-100
h-12t-12 1q-28 2 -51 20.5t-23 80.5v149q0 8 0.5 18.5t3.5 21.5q6 22 26 40t67 18h10h102q46 0 66 -18t26 -40q3 -11 4 -21.5t1 -18.5v-149q0 -54 -19 -74.5t-43 -24.5q-9 -2 -18.5 -2.5t-17.5 -0.5h-10v0zM175 760v-178q0 -9 5 -14.5t11 -8.5q1 0 2 -0.5t2 -0.5q8 2 14 8
t6 16v178q0 9 -5.5 16t-14.5 9q-9 -2 -14.5 -9.5t-5.5 -15.5v0z" />
    <glyph glyph-name="Y" 
 />
    <glyph glyph-name="X" 
 />
    <glyph glyph-name="asciicircum" 
 />
    <glyph glyph-name="semicolon" 
 />
    <glyph glyph-name="equal" 
 />
    <glyph glyph-name="question" unicode="&#xf9;" horiz-adv-x="624" 
d="M458 -143v143h-416v672h10h142v-584h39v584h10h142v-584h39v584h10h142v-584h34v-231h-10h-142v0z" />
    <glyph glyph-name="question" unicode="&#x449;" horiz-adv-x="624" 
d="M458 -143v143h-416v672h10h142v-584h39v584h10h142v-584h39v584h10h142v-584h34v-231h-10h-142v0z" />
    <glyph glyph-name="A" unicode="&#xfa;" horiz-adv-x="478" 
d="M107 0v584h-93v88h10h235v-278h79q9 0 20 -1t23 -3q26 -7 47.5 -29t21.5 -74v-184q0 -55 -23.5 -75.5t-52.5 -25.5q-10 -1 -19 -1.5t-18 -0.5h-10h-220v0zM259 88h6q17 0 23.5 8.5t8.5 18.5q1 5 1 9.5v8.5v131q0 23 -9 32t-19 10h-1.5h-1.5h-8v-218v0z" />
    <glyph glyph-name="A" unicode="&#x44a;" horiz-adv-x="478" 
d="M107 0v584h-93v88h10h235v-278h79q9 0 20 -1t23 -3q26 -7 47.5 -29t21.5 -74v-184q0 -55 -23.5 -75.5t-52.5 -25.5q-10 -1 -19 -1.5t-18 -0.5h-10h-220v0zM259 88h6q17 0 23.5 8.5t8.5 18.5q1 5 1 9.5v8.5v131q0 23 -9 32t-19 10h-1.5h-1.5h-8v-218v0z" />
    <glyph glyph-name="exclam" 
 />
    <glyph glyph-name="parenright" unicode="&#xd7;" horiz-adv-x="497" 
d="M264 0v307h-90q-9 0 -18 0.5t-19 1.5q-35 5 -65 32.5t-30 105.5v393h10h168v-399v-7.5t1 -8.5q2 -10 9 -18t25 -8h8v441h10h168v-840h-10h-167v0z" />
    <glyph glyph-name="parenright" unicode="&#x427;" horiz-adv-x="497" 
d="M264 0v307h-90q-9 0 -18 0.5t-19 1.5q-35 5 -65 32.5t-30 105.5v393h10h168v-399v-7.5t1 -8.5q2 -10 9 -18t25 -8h8v441h10h168v-840h-10h-167v0z" />
    <glyph glyph-name="zero" unicode="&#xd6;" horiz-adv-x="517" 
d="M56 0v840h10h168v-748h43v748h10h168v-748h34v-238h-10h-168v146h-255v0z" />
    <glyph glyph-name="zero" unicode="&#x426;" horiz-adv-x="517" 
d="M56 0v840h10h168v-748h43v748h10h168v-748h34v-238h-10h-168v146h-255v0z" />
    <glyph glyph-name="one" unicode="&#xb9;" horiz-adv-x="933" 
d="M56 0v840h10h175l66 -338v338h10h168v-840h-10h-174l-67 330v-330h-10h-168v0zM535 54v90h10h325v-90h-10h-325v0zM762 231h-129h-0.5h-0.5q-8 0 -17.5 0.5t-18.5 1.5q-26 4 -47 24.5t-21 76.5v167q0 54 20 76t44 29q11 3 21.5 3.5t19.5 0.5h10h130q8 0 21 -1t26 -6
q22 -9 39.5 -31.5t17.5 -70.5v-168v-0.5v-0.5q0 -8 -0.5 -19t-3.5 -22q-6 -23 -27.5 -41.5t-73.5 -18.5h-10v0zM684 509v-181q0 -10 6 -15.5t13 -7.5q8 2 13 8t5 15v181q0 8 -5 15t-13 9q-8 -2 -13.5 -9t-5.5 -15v0z" />
    <glyph glyph-name="quoteleft" unicode="&#xb8;" horiz-adv-x="427" 
d="M243 238h142v-137q0 -57 -20 -80t-44 -30q-12 -3 -22.5 -3.5t-19.5 -0.5l-10 -1h-117q-51 1 -74 20.5t-30 43.5q-4 14 -5 28t-1 23v469q0 57 30 86.5t79 29.5h10h117q42 0 64 -18t32 -40q8 -19 9.5 -36t1.5 -21v-268h-191v-207q0 -8 5.5 -14t12.5 -8q8 2 14.5 7t6.5 15
v142h10v0zM194 389h39v187q0 9 -6.5 15t-14.5 7q-7 -2 -12.5 -8t-5.5 -14v-187v0zM45 731v139h10h139v-139h-10h-139v0zM233 731v139h10h139v-139h-10h-139v0z" />
    <glyph glyph-name="five" 
 />
    <glyph glyph-name="Q" 
 />
    <glyph glyph-name="R" unicode="&#xbe;" horiz-adv-x="431" 
d="M52 223h142v-124q0 -10 5.5 -16t12.5 -8h1.5t1.5 1q6 2 12 7.5t6 15.5v110q0 25 -9 36.5t-21 20.5q-2 1 -3.5 2t-2.5 2l-3.5 3.5t-3.5 2.5l-104 85q-11 9 -18.5 17t-12.5 16q-9 14 -10.5 29.5t-1.5 37.5v112q0 9 0.5 21t3.5 24q6 25 28.5 46.5t79.5 21.5h10h116
q50 0 72 -19t29 -41q5 -14 5.5 -27t0.5 -22v-1.5v-1.5v-106h-10h-142v105q0 2 -0.5 5t-2.5 7t-6 8t-10 5q-8 -1 -12 -5.5t-6 -9.5q-1 -3 -1.5 -5.5t-0.5 -4.5v-84q0 -19 10 -33t22 -24q4 -3 7 -5.5t6 -4.5l95 -72q12 -9 20 -17.5t14 -16.5q12 -18 15 -36.5t3 -41.5v-133
q0 -8 -1.5 -23.5t-7.5 -33.5q-9 -23 -31.5 -42t-67.5 -19l-10 -1h-122q-47 1 -69 20t-30 43q-6 17 -7 32.5t-1 23.5v118h10v0z" />
    <glyph glyph-name="quotedblright" 
 />
    <glyph glyph-name="hyphen" 
 />
    <glyph glyph-name="slash" unicode="&#xfb;" horiz-adv-x="619" 
d="M42 0v672h10h142v-278h79q9 0 20 -1t23 -3q26 -7 47.5 -29t21.5 -74v-184q0 -7 -0.5 -15.5t-1.5 -16.5q-4 -27 -26 -49t-85 -22h-10h-220v0zM194 88h7q16 0 22.5 8t8.5 18q1 5 1 10v9v131v8t-1 10q-2 9 -8.5 16.5t-21.5 7.5h-8v-218v0zM425 0v672h10h142v-672h-10h-142v0
z" />
    <glyph glyph-name="slash" unicode="&#x44b;" horiz-adv-x="619" 
d="M42 0v672h10h142v-278h79q9 0 20 -1t23 -3q26 -7 47.5 -29t21.5 -74v-184q0 -7 -0.5 -15.5t-1.5 -16.5q-4 -27 -26 -49t-85 -22h-10h-220v0zM194 88h7q16 0 22.5 8t8.5 18q1 5 1 10v9v131v8t-1 10q-2 9 -8.5 16.5t-21.5 7.5h-8v-218v0zM425 0v672h10h142v-672h-10h-142v0
z" />
    <glyph glyph-name="period" unicode="&#xfd;" horiz-adv-x="427" 
d="M52 238h142v-140q0 -8 6 -14.5t15 -8.5q8 2 13 8t5 15v208h-103v77h103v192q0 8 -5 14.5t-13 7.5q-9 -1 -15 -7.5t-6 -14.5v-113h-10h-142v100q0 10 1 24t5 29q8 27 31 49t75 22h10h117q49 0 70.5 -22t28.5 -48q4 -15 4.5 -29t0.5 -24v-460v-0.5v-0.5q0 -10 -0.5 -23
t-4.5 -27q-6 -25 -27.5 -45t-71.5 -20l-10 -1h-117q-52 1 -75 21t-31 44q-4 15 -5 28.5t-1 22.5v136h10v0z" />
    <glyph glyph-name="period" unicode="&#x44d;" horiz-adv-x="427" 
d="M52 238h142v-140q0 -8 6 -14.5t15 -8.5q8 2 13 8t5 15v208h-103v77h103v192q0 8 -5 14.5t-13 7.5q-9 -1 -15 -7.5t-6 -14.5v-113h-10h-142v100q0 10 1 24t5 29q8 27 31 49t75 22h10h117q49 0 70.5 -22t28.5 -48q4 -15 4.5 -29t0.5 -24v-460v-0.5v-0.5q0 -10 -0.5 -23
t-4.5 -27q-6 -25 -27.5 -45t-71.5 -20l-10 -1h-117q-52 1 -75 21t-31 44q-4 15 -5 28.5t-1 22.5v136h10v0z" />
    <glyph glyph-name="space" unicode="&#xff;" horiz-adv-x="412" 
d="M21 0l78 265q-31 4 -46 20.5t-21 35.5q-4 14 -5 27t-1 21v188q0 9 0.5 19.5t2.5 20.5q5 28 26.5 51.5t80.5 23.5h10h224v-672h-10h-142v220l-49 -220h-10h-138v0zM218 584h-7q-16 0 -23 -8.5t-9 -18.5q-1 -5 -1 -9v-8v-161q0 -17 9.5 -27t23.5 -10h7v242v0z" />
    <glyph glyph-name="space" unicode="&#x44f;" horiz-adv-x="412" 
d="M21 0l78 265q-31 4 -46 20.5t-21 35.5q-4 14 -5 27t-1 21v188q0 9 0.5 19.5t2.5 20.5q5 28 26.5 51.5t80.5 23.5h10h224v-672h-10h-142v220l-49 -220h-10h-138v0zM218 584h-7q-16 0 -23 -8.5t-9 -18.5q-1 -5 -1 -9v-8v-161q0 -17 9.5 -27t23.5 -10h7v242v0z" />
    <glyph glyph-name="Z" unicode="&#xa1;" horiz-adv-x="511" 
d="M80 -14v101h28q35 0 49 13.5t18 30.5l2 10t1 9l4 47l-154 643h10h177l49 -373l39 373h10h170l-132 -713q-18 -98 -56 -119t-101 -21l-10 -1h-104v0zM89 1001h141v-31q0 -2 0.5 -5t2.5 -7q3 -6 8.5 -11t14.5 -7q9 2 15 7.5t8 12.5q1 3 1.5 5.5t0.5 4.5v31h10h141v-24
q0 -7 -0.5 -15.5t-2.5 -17.5q-5 -24 -26.5 -44t-75.5 -20h-10h-133q-54 0 -75.5 20t-26.5 44q-2 9 -2.5 17.5t-0.5 15.5v24h10v0z" />
    <glyph glyph-name="K" unicode="&#xe1;" horiz-adv-x="427" 
d="M366 874v-100h-123q-19 0 -34 -8t-15 -48v-73q11 10 23.5 17.5t25.5 13.5q13 5 25.5 7.5t23.5 2.5h10q39 0 56 -20t23 -44q3 -14 3.5 -27.5t0.5 -22.5v-0.5v-0.5v-467q0 -52 -20 -76.5t-44 -32.5q-16 -6 -31 -7t-24 -1l-10 -1h-97q-9 1 -23 2.5t-29 6.5q-24 7 -44.5 31.5
t-20.5 75.5v622v0v1q0 9 1.5 29t10.5 42q12 29 43 53.5t95 24.5h10h164v0zM194 560v-462q0 -2 0.5 -4t1.5 -4q2 -5 6.5 -9.5t11.5 -5.5q8 2 13.5 8t5.5 15v462q0 9 -5 14.5t-12 7.5q0 1 -0.5 1h-1.5t-2 -0.5t-2 -0.5q-6 -3 -11 -8.5t-5 -13.5v0z" />
    <glyph glyph-name="K" unicode="&#x431;" horiz-adv-x="427" 
d="M366 874v-100h-123q-19 0 -34 -8t-15 -48v-73q11 10 23.5 17.5t25.5 13.5q13 5 25.5 7.5t23.5 2.5h10q39 0 56 -20t23 -44q3 -14 3.5 -27.5t0.5 -22.5v-0.5v-0.5v-467q0 -52 -20 -76.5t-44 -32.5q-16 -6 -31 -7t-24 -1l-10 -1h-97q-9 1 -23 2.5t-29 6.5q-24 7 -44.5 31.5
t-20.5 75.5v622v0v1q0 9 1.5 29t10.5 42q12 29 43 53.5t95 24.5h10h164v0zM194 560v-462q0 -2 0.5 -4t1.5 -4q2 -5 6.5 -9.5t11.5 -5.5q8 2 13.5 8t5.5 15v462q0 9 -5 14.5t-12 7.5q0 1 -0.5 1h-1.5t-2 -0.5t-2 -0.5q-6 -3 -11 -8.5t-5 -13.5v0z" />
    <glyph glyph-name="L" unicode="&#xe9;" horiz-adv-x="451" 
d="M42 0v672h10h142v-269l63 269h10h142v-672h-10h-142v291l-63 -291h-10h-142v0zM79 864h124v-77q0 -10 7 -17.5t15 -9.5h1.5t1.5 1q7 2 13.5 8.5t6.5 17.5v77h10h124v-78q0 -5 -0.5 -14.5t-5.5 -19.5q-6 -14 -23.5 -26t-55.5 -12h-10h-134q-37 0 -54.5 12t-23.5 26
q-5 10 -5.5 19.5t-0.5 14.5v78h10v0z" />
    <glyph glyph-name="L" unicode="&#x439;" horiz-adv-x="451" 
d="M42 0v672h10h142v-269l63 269h10h142v-672h-10h-142v291l-63 -291h-10h-142v0zM79 864h124v-77q0 -10 7 -17.5t15 -9.5h1.5t1.5 1q7 2 13.5 8.5t6.5 17.5v77h10h124v-78q0 -5 -0.5 -14.5t-5.5 -19.5q-6 -14 -23.5 -26t-55.5 -12h-10h-134q-37 0 -54.5 12t-23.5 26
q-5 10 -5.5 19.5t-0.5 14.5v78h10v0z" />
    <glyph glyph-name="exclam" unicode="&#xf0;" horiz-adv-x="427" 
d="M42 -224v896h10h142v-19q18 14 41.5 23.5t51.5 9.5h10q41 0 59.5 -22t24.5 -49q2 -13 3 -25.5t1 -22.5v-461q0 -10 -0.5 -22t-3.5 -24q-5 -28 -24.5 -50.5t-66.5 -22.5l-10 -1q-16 1 -39 7.5t-47 27.5v-245h-10h-142v0zM194 577v-481q0 -8 5.5 -14t12.5 -8q8 2 14.5 7
t6.5 15v481q0 10 -6.5 15.5t-14.5 6.5q-7 -1 -12.5 -7.5t-5.5 -14.5v0z" />
    <glyph glyph-name="exclam" unicode="&#x440;" horiz-adv-x="427" 
d="M42 -224v896h10h142v-19q18 14 41.5 23.5t51.5 9.5h10q41 0 59.5 -22t24.5 -49q2 -13 3 -25.5t1 -22.5v-461q0 -10 -0.5 -22t-3.5 -24q-5 -28 -24.5 -50.5t-66.5 -22.5l-10 -1q-16 1 -39 7.5t-47 27.5v-245h-10h-142v0zM194 577v-481q0 -8 5.5 -14t12.5 -8q8 2 14.5 7
t6.5 15v481q0 10 -6.5 15.5t-14.5 6.5q-7 -1 -12.5 -7.5t-5.5 -14.5v0z" />
    <glyph glyph-name="quotedblleft" unicode="&#xf1;" horiz-adv-x="427" 
d="M243 238h142v-132q0 -85 -32.5 -102t-71.5 -17h-3.5h-2.5l-10 -1h-113q-8 1 -16.5 1.5t-17.5 1.5q-28 5 -52 27.5t-24 88.5v460q0 73 25 95t55 25q8 1 15 1h14h10h114q57 0 79.5 -22t27.5 -49q2 -11 2.5 -22.5t0.5 -20.5v-2v-2v-123h-10h-142v130q0 8 -6 14.5t-16 8.5
q-7 -2 -11 -7t-5 -10q-1 -2 -1 -3.5v-2.5v-479q0 -8 5 -14t13 -8q9 1 15 7.5t6 14.5v142h10v0z" />
    <glyph glyph-name="quotedblleft" unicode="&#x441;" horiz-adv-x="427" 
d="M243 238h142v-132q0 -85 -32.5 -102t-71.5 -17h-3.5h-2.5l-10 -1h-113q-8 1 -16.5 1.5t-17.5 1.5q-28 5 -52 27.5t-24 88.5v460q0 73 25 95t55 25q8 1 15 1h14h10h114q57 0 79.5 -22t27.5 -49q2 -11 2.5 -22.5t0.5 -20.5v-2v-2v-123h-10h-142v130q0 8 -6 14.5t-16 8.5
q-7 -2 -11 -7t-5 -10q-1 -2 -1 -3.5v-2.5v-479q0 -8 5 -14t13 -8q9 1 15 7.5t6 14.5v142h10v0z" />
    <glyph glyph-name="four" unicode="&#x2018;" horiz-adv-x="261" 
d="M42 592v152q0 24 9.5 60.5t50.5 76.5h10h107l-6 -6l-6 -6q-37 -40 -46.5 -75.5t-10.5 -49.5h54v-152h-10h-152v0z" />
    <glyph glyph-name="period" unicode="&#xf5;" horiz-adv-x="419" 
d="M21 0l61 351l-61 321h10h152l23 -226l22 226h10h150l-57 -321l67 -351h-10h-147l-35 259l-30 -259h-10h-145v0z" />
    <glyph glyph-name="period" unicode="&#x445;" horiz-adv-x="419" 
d="M21 0l61 351l-61 321h10h152l23 -226l22 226h10h150l-57 -321l67 -351h-10h-147l-35 259l-30 -259h-10h-145v0z" />
    <glyph glyph-name="at" unicode="&#xb1;" horiz-adv-x="625" 
d="M56 119v89h10h503v-89h-10h-503v0zM365 490h200v-93h-200v-140h-10h-92v140h-203v93h203v201h10h92v-201v0z" />
    <glyph glyph-name="P" unicode="&#xb2;" horiz-adv-x="290" 
d="M56 0v840h10h168v-840h-10h-168v0z" />
    <glyph glyph-name="B" unicode="&#x201d;" horiz-adv-x="481" 
d="M223 881v-152q0 -34 -10 -60t-22 -43q-9 -13 -17 -21.5t-12 -12.5h-10h-110q6 5 13 11t14 15q14 17 27 44.5t17 66.5h-54v152h10h154v0zM439 881v-152q0 -39 -14 -68.5t-30 -50.5q-5 -5 -9 -9.5t-8 -8.5h-10h-106q26 26 45.5 60t23.5 77h-55v152h10h153v0z" />
    <glyph glyph-name="D" horiz-adv-x="508" 
d="M56 0v840h10h168v-301l52 301h10h167l-85 -405l102 -435h-10h-166l-70 340v-340h-10h-168v0z" />
    <glyph glyph-name="space" 
 />
    <glyph glyph-name="E" 
 />
    <glyph glyph-name="C" unicode="&#xef;" horiz-adv-x="427" 
d="M42 0v672h10h333v-672h-10h-142v584h-39v-584h-10h-142v0z" />
    <glyph glyph-name="C" unicode="&#x43f;" horiz-adv-x="427" 
d="M42 0v672h10h333v-672h-10h-142v584h-39v-584h-10h-142v0z" />
    <glyph glyph-name="percent" unicode="&#xee;" horiz-adv-x="427" 
d="M42 105v459q0 55 22 80.5t48 34.5q13 4 26 5.5t23 1.5h10h95q49 0 74 -19.5t34 -43.5q8 -19 9.5 -35.5t1.5 -23.5v-459q0 -8 -1 -23.5t-8 -32.5q-9 -24 -33.5 -43t-76.5 -19l-10 -1h-95q-52 1 -76.5 20t-33.5 43q-7 17 -8 32.5t-1 23.5v0zM194 575v-478q0 -8 5.5 -14.5
t13.5 -8.5q6 1 10 5t7 8q1 3 2 5.5t1 4.5v478q0 2 -1 4.5t-2 5.5q-3 4 -7 8t-10 5q-8 -2 -13.5 -8.5t-5.5 -14.5v0z" />
    <glyph glyph-name="percent" unicode="&#x43e;" horiz-adv-x="427" 
d="M42 105v459q0 55 22 80.5t48 34.5q13 4 26 5.5t23 1.5h10h95q49 0 74 -19.5t34 -43.5q8 -19 9.5 -35.5t1.5 -23.5v-459q0 -8 -1 -23.5t-8 -32.5q-9 -24 -33.5 -43t-76.5 -19l-10 -1h-95q-52 1 -76.5 20t-33.5 43q-7 17 -8 32.5t-1 23.5v0zM194 575v-478q0 -8 5.5 -14.5
t13.5 -8.5q6 1 10 5t7 8q1 3 2 5.5t1 4.5v478q0 2 -1 4.5t-2 5.5q-3 4 -7 8t-10 5q-8 -2 -13.5 -8.5t-5.5 -14.5v0z" />
    <glyph glyph-name="F" 
 />
    <glyph glyph-name="G" unicode="&#xba;" horiz-adv-x="427" 
d="M385 238v-136q0 -9 -1 -22.5t-5 -28.5q-8 -24 -31 -44t-75 -20l-10 -1h-117q-50 1 -71.5 21t-27.5 45q-4 14 -4.5 27t-0.5 23v0.5v0.5v460q0 10 1 23.5t4 28.5q7 26 28.5 48.5t70.5 22.5h10h117q51 0 74 -22t31 -49q5 -15 6 -29t1 -24v-100h-10h-142v113q0 10 -6 16
t-14 7q-8 -2 -13.5 -8.5t-5.5 -14.5v-192h103v-77h-103v-208q0 -9 5.5 -15t12.5 -8q8 1 14.5 7t6.5 16v140h10h142v0z" />
    <glyph glyph-name="ampersand" unicode="&#xab;" horiz-adv-x="469" 
d="M107 90l-51 241l51 258h10h123l-50 -248l50 -251h-10h-123v0zM280 90l-51 241l51 258h10h123l-50 -248l50 -251h-10h-123v0z" />
    <glyph glyph-name="quotesingle" unicode="&#xac;" horiz-adv-x="780" 
d="M84 310v84h10h602v-234h-10h-90v150h-512v0z" />
    <glyph glyph-name="asciitilde" horiz-adv-x="415" 
d="M56 0v840h10h321v-92h-153v-748h-10h-168v0z" />
    <glyph glyph-name="parenleft" unicode="&#x201a;" horiz-adv-x="264" 
d="M60 0v151h10h152v-151q0 -15 -3.5 -32.5t-10.5 -36.5q-7 -18 -18 -35.5t-27 -33.5l-10 -1h-111q32 26 50.5 62t19.5 77h-52v0z" />
    <glyph glyph-name="hyphen" unicode="&#xf4;" horiz-adv-x="619" 
d="M233 -223v241q-27 -18 -50.5 -24.5t-46.5 -6.5l-10 -1q-39 1 -56 21t-23 44q-3 13 -4 26t-1 22v474q0 55 19.5 79t43.5 31q6 1 13 2t13 1h10q7 0 14.5 -1t15.5 -3q17 -4 33 -11t29 -16v199h10h142v-199q19 13 43.5 22t51.5 9h10q38 0 56 -19t25 -42q4 -15 5 -29t1 -23
v-474q0 -9 -1 -21.5t-4 -25.5q-5 -25 -22.5 -45t-56.5 -20l-10 -1q-22 1 -45.5 7.5t-52.5 24.5v-241h-10h-142v0zM194 568v-468q0 -9 5 -14t11 -7q1 0 2 -0.5t2 -0.5h1.5h0.5q7 2 12 7t5 14v469q0 9 -5 14t-12 7h-0.5h-1.5t-2 -0.5t-2 -0.5q-6 -2 -11 -7t-5 -13v0zM385 568
v-469q0 -7 6.5 -13t13.5 -8q1 0 2 0.5t2 0.5q6 2 11 7t5 13v469q0 8 -5 13t-11 7q-1 0 -2 0.5t-2 0.5q-7 -1 -13.5 -7t-6.5 -14v0z" />
    <glyph glyph-name="hyphen" unicode="&#x444;" horiz-adv-x="619" 
d="M233 -223v241q-27 -18 -50.5 -24.5t-46.5 -6.5l-10 -1q-39 1 -56 21t-23 44q-3 13 -4 26t-1 22v474q0 55 19.5 79t43.5 31q6 1 13 2t13 1h10q7 0 14.5 -1t15.5 -3q17 -4 33 -11t29 -16v199h10h142v-199q19 13 43.5 22t51.5 9h10q38 0 56 -19t25 -42q4 -15 5 -29t1 -23
v-474q0 -9 -1 -21.5t-4 -25.5q-5 -25 -22.5 -45t-56.5 -20l-10 -1q-22 1 -45.5 7.5t-52.5 24.5v-241h-10h-142v0zM194 568v-468q0 -9 5 -14t11 -7q1 0 2 -0.5t2 -0.5h1.5h0.5q7 2 12 7t5 14v469q0 9 -5 14t-12 7h-0.5h-1.5t-2 -0.5t-2 -0.5q-6 -2 -11 -7t-5 -13v0zM385 568
v-469q0 -7 6.5 -13t13.5 -8q1 0 2 0.5t2 0.5q6 2 11 7t5 13v469q0 8 -5 13t-11 7q-1 0 -2 0.5t-2 0.5q-7 -1 -13.5 -7t-6.5 -14v0z" />
    <glyph glyph-name="N" 
 />
    <glyph glyph-name="M" 
 />
    <glyph glyph-name="greater" unicode="&#xa0;" 
 />
    <glyph glyph-name="zero" unicode="&#xb0;" horiz-adv-x="406" 
d="M242 549h-88q-46 0 -72 23t-26 78v95q0 56 26 78.5t72 22.5h10h88q8 0 17.5 -0.5t18.5 -3.5q24 -6 43 -26.5t19 -70.5v-95q0 -50 -19 -70.5t-43 -26.5q-9 -3 -18.5 -3.5t-17.5 -0.5h-10v0zM184 729v-63v-7.5t1 -9.5q1 -7 5 -13.5t12 -8.5q9 2 13 8t6 13q1 5 1.5 10t0.5 8
v63q0 3 -0.5 8t-1.5 10q-1 7 -5.5 13t-12.5 8q-9 -2 -12.5 -8.5t-5.5 -13.5q-1 -5 -1 -9.5v-7.5v0z" />
    <glyph glyph-name="slash" unicode="&#xa2;" horiz-adv-x="427" 
d="M62 -84h132v-36q0 -7 6 -13.5t15 -7.5q8 1 13 7.5t5 14.5v136q-17 -13 -41 -21.5t-52 -8.5l-10 -1q-39 1 -57.5 20.5t-25.5 43.5q-3 10 -4 20.5t-1 18.5v583h10h142v-572q0 -10 5 -17t14 -9q9 2 14.5 8.5t5.5 17.5v572h10h142v-715q0 -117 -37.5 -148.5t-86.5 -31.5
l-10 -1h-75q-60 1 -86 27t-34 57q-2 11 -3 21.5t-1 20.5v5.5v4.5v2.5v2.5l10 -1v0zM67 864h124v-77q0 -10 7 -17.5t15 -9.5h1.5t1.5 1q7 2 13.5 8.5t6.5 17.5v77h10h124v-78q0 -5 -0.5 -14.5t-5.5 -19.5q-6 -14 -23.5 -26t-55.5 -12h-10h-134q-37 0 -54.5 12t-23.5 26
q-5 10 -5.5 19.5t-0.5 14.5v78h10v0z" />
    <glyph glyph-name="quotedblleft" unicode="&#xa4;" horiz-adv-x="1062" 
d="M177 107l112 112q-4 6 -10.5 16.5t-13.5 24.5q-11 23 -20 55t-9 71t9 71t20 55q7 14 13.5 24.5t10.5 16.5l-112 112l67 67h10l107 -107q10 7 19.5 13t19.5 11q35 17 68 22t58 5h10q25 0 58 -5.5t68 -22.5q10 -5 19.5 -11t19.5 -13l108 108h10l66 -67l-112 -112
q4 -6 10.5 -16.5t13.5 -24.5q11 -23 20 -55t9 -71t-9 -71t-20 -55q-7 -14 -13.5 -24.5t-10.5 -16.5l112 -112l-66 -66h-10l-108 107q-23 -16 -48 -27t-50 -17q-17 -4 -34 -6t-33 -2h-10q-16 0 -33 2t-34 6q-25 6 -50 17t-48 27l-107 -107h-10l-67 66v0zM321 386
q0 -85 61 -149t149 -66q89 2 149.5 66t60.5 149q0 89 -62 151t-148 64q-13 0 -27.5 -2.5t-28.5 -6.5q-14 -5 -28 -11t-28 -15q-24 -16 -40.5 -33.5t-27.5 -36.5q-19 -31 -24.5 -60.5t-5.5 -49.5v0z" />
    <glyph glyph-name="equal" unicode="&#xe0;" horiz-adv-x="427" 
d="M42 459v117q0 51 21 74t46 30q14 4 27.5 5t23.5 1h10h122q43 0 68 -28t25 -81v-577h-10h-142v26q-18 -16 -42 -27.5t-53 -11.5l-10 -1q-39 1 -57 19t-24 40q-4 15 -4.5 28.5t-0.5 21.5v1.5v0.5v170q0 24 11.5 42t36.5 34q13 8 28.5 16t35.5 17q2 1 4.5 2t4.5 2
q29 13 49.5 30.5t20.5 55.5v109q0 8 -6 14.5t-15 8.5q-8 -1 -13 -8t-5 -15v-116h-10h-142v0zM233 106v237q-23 -9 -30.5 -21t-8.5 -25v-6v-6v-1.5v-0.5v-177q0 -8 5.5 -14.5t13.5 -8.5q7 1 12 6t7 10q0 2 0.5 3.5t0.5 3.5v0z" />
    <glyph glyph-name="equal" unicode="&#x430;" horiz-adv-x="427" 
d="M42 459v117q0 51 21 74t46 30q14 4 27.5 5t23.5 1h10h122q43 0 68 -28t25 -81v-577h-10h-142v26q-18 -16 -42 -27.5t-53 -11.5l-10 -1q-39 1 -57 19t-24 40q-4 15 -4.5 28.5t-0.5 21.5v1.5v0.5v170q0 24 11.5 42t36.5 34q13 8 28.5 16t35.5 17q2 1 4.5 2t4.5 2
q29 13 49.5 30.5t20.5 55.5v109q0 8 -6 14.5t-15 8.5q-8 -1 -13 -8t-5 -15v-116h-10h-142v0zM233 106v237q-23 -9 -30.5 -21t-8.5 -25v-6v-6v-1.5v-0.5v-177q0 -8 5.5 -14.5t13.5 -8.5q7 1 12 6t7 10q0 2 0.5 3.5t0.5 3.5v0z" />
    <glyph glyph-name="emdash" unicode="&#xa5;" 
 />
    <glyph glyph-name="endash" unicode="&#xa3;" horiz-adv-x="337" 
d="M56 -14v99h15q16 0 24 8t8 19v728h10h168v-728q0 -92 -31.5 -108.5t-71.5 -16.5l-10 -1h-112v0z" />
    <glyph glyph-name="yright" unicode="&#xe5;" horiz-adv-x="427" 
d="M243 238h142v-137q0 -57 -20 -80t-44 -30q-12 -3 -22.5 -3.5t-19.5 -0.5l-10 -1h-118q-52 1 -74 20.5t-30 43.5q-4 14 -4.5 27t-0.5 22v1.5v0.5v469q0 57 30 86.5t79 29.5h10h117q5 0 20 -1.5t32 -10.5q21 -10 38 -33.5t17 -69.5v-268h-191v-207q0 -2 0.5 -3.5t0.5 -3.5
q2 -5 5.5 -9t9.5 -6q10 2 16.5 8.5t6.5 13.5v142h10v0zM194 378h39v198q0 8 -6.5 14.5t-16.5 7.5q-6 -2 -9.5 -6t-5.5 -9q0 -2 -0.5 -3.5t-0.5 -3.5v-198v0z" />
    <glyph glyph-name="yright" unicode="&#x435;" horiz-adv-x="427" 
d="M243 238h142v-137q0 -57 -20 -80t-44 -30q-12 -3 -22.5 -3.5t-19.5 -0.5l-10 -1h-118q-52 1 -74 20.5t-30 43.5q-4 14 -4.5 27t-0.5 22v1.5v0.5v469q0 57 30 86.5t79 29.5h10h117q5 0 20 -1.5t32 -10.5q21 -10 38 -33.5t17 -69.5v-268h-191v-207q0 -2 0.5 -3.5t0.5 -3.5
q2 -5 5.5 -9t9.5 -6q10 2 16.5 8.5t6.5 13.5v142h10v0zM194 378h39v198q0 8 -6.5 14.5t-16.5 7.5q-6 -2 -9.5 -6t-5.5 -9q0 -2 -0.5 -3.5t-0.5 -3.5v-198v0z" />
    <glyph glyph-name="circumflex" unicode="&#xa6;" horiz-adv-x="249" 
d="M42 0v151h10h155v-151h-10h-155v0zM42 515v154h10h155v-154h-10h-155v0z" />
    <glyph glyph-name="scaron" unicode="&#xa7;" horiz-adv-x="464" 
d="M42 339v32.5v16.5v15.5v32.5v6q0 26 12 41t27 22q5 3 10.5 5.5t10.5 3.5q-31 11 -43 30.5t-15 41.5q-1 9 -1.5 18t-0.5 17v116q0 50 25 75.5t55 34.5q13 4 25.5 5.5t22.5 1.5h10h118q9 0 19.5 -0.5t21.5 -3.5q25 -5 46.5 -27t21.5 -77v-83l-155 -1h-10v59v4.5v5.5v2.5
v3.5q-1 7 -5 14t-15 9q-7 -2 -13 -8.5t-6 -15.5v-61q0 -7 1.5 -14t5.5 -15q7 -14 25.5 -28t52.5 -30q5 -2 10.5 -4.5t11.5 -4.5t12.5 -4.5t13.5 -4.5q32 -13 59 -35t27 -70v-163q0 -7 -0.5 -17t-3.5 -21q-4 -16 -17 -30t-41 -19q38 -14 49.5 -45t12.5 -65v-18v-18v-7.5v-7.5
v-79q0 -7 -2.5 -17.5t-8.5 -21.5q-13 -23 -48 -42t-104 -19l-10 -1h-100q-31 1 -52 19t-31 39q-5 9 -7 18t-2 17v66l46 33h10l108 -38l1 -33v-4t1 -6q2 -4 5 -8t9 -5h6q6 3 10.5 9t6.5 13q0 2 0.5 4t0.5 3v42l-1 25q-1 25 -29.5 43t-62.5 31q-2 1 -4 1.5t-4 1.5q-3 1 -5.5 2
t-5.5 2q-40 13 -73.5 43t-33.5 137v2.5v2.5v2.5v2.5v0zM208 471v-148q0 -23 8.5 -40.5t39.5 -22.5v148q0 5 -0.5 12t-2.5 14q-4 12 -14 22.5t-31 14.5v0z" />
    <glyph glyph-name="guilsinglright" unicode="&#xe6;" horiz-adv-x="630" 
d="M239 0v262l-65 -262h-10h-143l84 343l-73 329h10h152l45 -241v241h10h142v-241l45 241h10h152l-73 -329l84 -343h-10h-143l-65 262v-262h-10h-142v0z" />
    <glyph glyph-name="guilsinglright" unicode="&#x436;" horiz-adv-x="630" 
d="M239 0v262l-65 -262h-10h-143l84 343l-73 329h10h152l45 -241v241h10h142v-241l45 241h10h152l-73 -329l84 -343h-10h-143l-65 262v-262h-10h-142v0z" />
    <glyph glyph-name="florin" unicode="&#xe7;" horiz-adv-x="427" 
d="M52 238h142v-139q0 -11 7 -17t15 -8q8 1 11.5 5.5t4.5 9.5q1 3 1 5.5v4.5v157v0.5v1.5v8.5t-1 8.5q-2 11 -12 20.5t-37 9.5h-47v74h48q33 0 41 15.5t8 34.5v1.5v1.5v139v5.5t-1 6.5q-1 5 -4.5 9.5t-10.5 5.5q-10 -1 -16.5 -7.5t-6.5 -14.5v-114h-10h-142v109v16.5t1 17.5
q4 30 25.5 55.5t88.5 25.5h10h118q47 0 68 -19.5t27 -43.5q4 -13 4.5 -26.5t0.5 -22.5v-1v-2v-137q0 -7 -0.5 -17t-4.5 -21q-6 -17 -22.5 -31.5t-53.5 -14.5v-9h6q35 0 50.5 -14.5t20.5 -31.5q3 -11 3.5 -21t0.5 -17v-154q0 -59 -19.5 -82.5t-43.5 -29.5q-11 -3 -21 -3.5
t-19 -0.5l-10 -1h-116q-57 1 -80 22.5t-30 47.5q-3 12 -3.5 24t-0.5 22v136h10v0z" />
    <glyph glyph-name="florin" unicode="&#x437;" horiz-adv-x="427" 
d="M52 238h142v-139q0 -11 7 -17t15 -8q8 1 11.5 5.5t4.5 9.5q1 3 1 5.5v4.5v157v0.5v1.5v8.5t-1 8.5q-2 11 -12 20.5t-37 9.5h-47v74h48q33 0 41 15.5t8 34.5v1.5v1.5v139v5.5t-1 6.5q-1 5 -4.5 9.5t-10.5 5.5q-10 -1 -16.5 -7.5t-6.5 -14.5v-114h-10h-142v109v16.5t1 17.5
q4 30 25.5 55.5t88.5 25.5h10h118q47 0 68 -19.5t27 -43.5q4 -13 4.5 -26.5t0.5 -22.5v-1v-2v-137q0 -7 -0.5 -17t-4.5 -21q-6 -17 -22.5 -31.5t-53.5 -14.5v-9h6q35 0 50.5 -14.5t20.5 -31.5q3 -11 3.5 -21t0.5 -17v-154q0 -59 -19.5 -82.5t-43.5 -29.5q-11 -3 -21 -3.5
t-19 -0.5l-10 -1h-116q-57 1 -80 22.5t-30 47.5q-3 12 -3.5 24t-0.5 22v136h10v0z" />
    <glyph glyph-name="quotedblleft" unicode="&#xdf;" horiz-adv-x="505" 
d="M28 0l101 333q-36 0 -52.5 17t-21.5 37q-3 12 -4 23.5t-1 19.5v282q0 10 0.5 21.5t3.5 23.5q6 31 32.5 57t92.5 26h10h260v-840h-10h-168v312l-60 -312h-10h-173v0zM271 748h-3q-15 0 -27.5 -6.5t-12.5 -31.5v-279q0 -22 11.5 -30t28.5 -8h3v355v0z" />
    <glyph glyph-name="quotedblleft" unicode="&#x42f;" horiz-adv-x="505" 
d="M28 0l101 333q-36 0 -52.5 17t-21.5 37q-3 12 -4 23.5t-1 19.5v282q0 10 0.5 21.5t3.5 23.5q6 31 32.5 57t92.5 26h10h260v-840h-10h-168v312l-60 -312h-10h-173v0zM271 748h-3q-15 0 -27.5 -6.5t-12.5 -31.5v-279q0 -22 11.5 -30t28.5 -8h3v355v0z" />
    <glyph glyph-name="plus" 
 />
    <glyph glyph-name="comma" unicode="&#xe8;" horiz-adv-x="451" 
d="M42 0v672h10h142v-269l63 269h10h142v-672h-10h-142v291l-63 -291h-10h-142v0z" />
    <glyph glyph-name="comma" unicode="&#x438;" horiz-adv-x="451" 
d="M42 0v672h10h142v-269l63 269h10h142v-672h-10h-142v291l-63 -291h-10h-142v0z" />
    <glyph glyph-name="ellipsis" unicode="&#xed;" horiz-adv-x="427" 
d="M42 0v672h10h142v-286h39v286h10h142v-672h-10h-142v298h-39v-298h-10h-142v0z" />
    <glyph glyph-name="ellipsis" unicode="&#x43d;" horiz-adv-x="427" 
d="M42 0v672h10h142v-286h39v286h10h142v-672h-10h-142v298h-39v-298h-10h-142v0z" />
    <glyph glyph-name="dagger" unicode="&#xae;" horiz-adv-x="595" 
d="M539 707v-331q0 -55 -13 -93.5t-78 -38.5h-10h-290q-57 0 -74.5 32.5t-17.5 99.5v331q0 86 24 109t99 23h10h228q81 0 101.5 -27.5t20.5 -104.5v0zM213 298h170q34 0 51.5 10.5t17.5 53.5v358q0 38 -14 51t-55 13h-170q-41 0 -55 -13t-14 -51v-359q0 -37 14 -50t55 -13v0
zM199 369v343h10h120q31 0 42.5 -10t14.5 -21q2 -6 2 -11v-9v-0.5v-0.5v-105v-9.5t-2 -10.5q-2 -8 -8 -15.5t-19 -11.5l44 -139h-10h-79l-29 111v-111h-10h-76v0zM285 531q7 0 12 5.5t5 15.5v108q0 7 -3 12.5t-14 5.5v-147v0z" />
    <glyph glyph-name="daggerdbl" unicode="&#xad;" horiz-adv-x="318" 
d="M56 321v88h10h196v-88h-10h-196v0z" />
    <glyph glyph-name="tilde" 
 />
    <glyph glyph-name="guilsinglleft" 
 />
    <glyph glyph-name="bullet" 
 />
    <glyph glyph-name="oe" unicode="&#x201c;" horiz-adv-x="481" 
d="M42 592v152q0 43 17.5 77.5t42.5 59.5h10h107l-2 -2l-2 -2q-42 -43 -53 -80.5t-12 -52.5h54v-152h-10h-152v0zM258 592v152q0 23 9 60t51 77h10h111q-15 -12 -26 -25t-19 -26q-15 -25 -20 -48t-6 -38h54v-152h-10h-154v0z" />
    <glyph glyph-name="O" horiz-adv-x="437" 
d="M42 0v672h10h142v-240l44 240h10h144l-71 -324l95 -348h-10h-146l-66 269v-269h-10h-142v0z" />
    <glyph glyph-name="numbersign" unicode="&#x2014;" horiz-adv-x="457" 
d="M42 321v88h10h363v-88h-10h-363v0z" />
    <glyph glyph-name="dollar" unicode="&#x2013;" horiz-adv-x="624" 
d="M56 376v90h10h502v-90h-10h-502v0z" />
    <glyph glyph-name="six" unicode="&#x2122;" horiz-adv-x="681" 
d="M106 420v374h-50v46h10h183v-46h-50v-374h-10h-83v0zM281 420v420h10h100l62 -257l64 257h10h98v-420h-10h-84v186l-36 -186h-10h-72l-38 188v-188h-10h-84v0z" />
    <glyph glyph-name="seven" unicode="&#x2dc;" 
 />
    <glyph glyph-name="eight" unicode="&#x161;" 
 />
    <glyph glyph-name="less" unicode="&#x203a;" horiz-adv-x="296" 
d="M179 90h-123l50 251l-50 248h10h123l51 -258l-51 -241h-10v0z" />
    <glyph glyph-name="greater" unicode="&#x192;" horiz-adv-x="351" 
d="M42 0v672h10h278v-88h-136v-584h-10h-142v0z" />
    <glyph glyph-name="quotedblbase" unicode="&#x201e;" horiz-adv-x="479" 
d="M222 153v-153q0 -7 -1 -14.5t-2 -15.5q-6 -29 -20.5 -56.5t-34.5 -49.5l-10 -1h-112q29 24 48.5 59t19.5 78h-51v153h10h153v0zM437 153v-153q0 -8 -0.5 -17t-2.5 -18q-4 -22 -16 -45.5t-36 -55.5l-10 -1h-118q32 26 51.5 60.5t19.5 74.5v2h-51v153h10h153v0z" />
    <glyph glyph-name="edieresis" unicode="&#xeb;" horiz-adv-x="443" 
d="M14 -14v103h6q15 0 22.5 7t11.5 15q2 6 3 11.5t1 8.5l66 541h10h230l58 -672h-10h-152l-24 541l-27 -433q-1 -9 -2.5 -24t-8.5 -31q-10 -25 -34.5 -45.5t-76.5 -20.5l-10 -1h-63v0z" />
    <glyph glyph-name="edieresis" unicode="&#x43b;" horiz-adv-x="443" 
d="M14 -14v103h6q15 0 22.5 7t11.5 15q2 6 3 11.5t1 8.5l66 541h10h230l58 -672h-10h-152l-24 541l-27 -433q-1 -9 -2.5 -24t-8.5 -31q-10 -25 -34.5 -45.5t-76.5 -20.5l-10 -1h-63v0z" />
    <glyph glyph-name="igrave" unicode="&#xec;" horiz-adv-x="598" 
d="M299 292l98 380h10h149v-672h-10h-142v286l-59 -286h-10h-82l-59 286v-286h-10h-142v672h10h149l98 -380v0z" />
    <glyph glyph-name="igrave" unicode="&#x43c;" horiz-adv-x="598" 
d="M299 292l98 380h10h149v-672h-10h-142v286l-59 -286h-10h-82l-59 286v-286h-10h-142v672h10h149l98 -380v0z" />
    <glyph glyph-name="glyph229" 
 />
    <glyph glyph-name="glyph230" 
 />
    <glyph glyph-name="glyph231" 
 />
    <glyph glyph-name="glyph232" unicode="&#x2026;" horiz-adv-x="864" 
d="M42 0v151h10h154v-151h-10h-154v0zM350 0v151h10h154v-151h-10h-154v0zM658 0v151h10h154v-151h-10h-154v0z" />
    <glyph glyph-name="glyph233" unicode="&#x2020;" horiz-adv-x="598" 
d="M224 -210v546h-182v140h182v193h10h140v-193h182v-140h-182v-546h-10h-140v0z" />
    <glyph glyph-name="glyph234" 
 />
    <glyph glyph-name="glyph235" 
 />
    <glyph glyph-name="glyph236" unicode="&#x2021;" horiz-adv-x="460" 
d="M344 0h-103v-21h-10h-168v529h-35v77h36v136q0 69 22 96t49 33q9 3 18.5 3.5t17.5 0.5h10h145v-76h-43h-8.5t-10.5 -2q-9 -2 -16 -7.5t-7 -17.5v-166h90v-77h-90v-432h13h2q11 0 18.5 8t7.5 19v25h10h168v-3v-0.5v-1.5q0 -8 -1 -24.5t-6 -34.5q-7 -24 -26.5 -44
t-59.5 -20l-10 -1q-1 1 -3 1h-3h-3.5h-3.5v0z" />
    <glyph glyph-name="glyph237" unicode="&#x2c6;" 
 />
    <glyph glyph-name="glyph238" 
 />
    <glyph glyph-name="glyph239" 
 />
    <glyph glyph-name="glyph240" 
 />
    <glyph glyph-name="glyph241" 
 />
    <glyph glyph-name="glyph242" 
 />
    <glyph glyph-name="glyph243" unicode="&#x2039;" horiz-adv-x="296" 
d="M107 90l-51 241l51 258h10h123l-50 -248l50 -251h-10h-123v0z" />
    <glyph glyph-name="glyph244" 
 />
    <glyph glyph-name="glyph245" 
 />
    <glyph glyph-name="glyph246" 
 />
    <glyph glyph-name="glyph247" 
 />
    <glyph glyph-name="glyph248" 
 />
    <glyph glyph-name="glyph249" 
 />
    <glyph glyph-name="glyph250" 
 />
    <glyph glyph-name="glyph251" 
 />
    <glyph glyph-name="glyph252" 
 />
    <glyph glyph-name="glyph253" 
 />
    <glyph glyph-name="glyph254" 
 />
    <glyph glyph-name="glyph255" 
 />
    <glyph glyph-name="glyph256" 
 />
    <glyph glyph-name="glyph257" unicode="&#x2022;" horiz-adv-x="570" 
d="M182 432q0 41 29 69.5t69 28.5h10q41 0 69.5 -29t28.5 -69q0 -38 -29 -68t-69 -30h-10q-40 0 -69 29t-29 69v0z" />
    <glyph glyph-name="glyph258" unicode="&#x153;" 
 />
    <glyph glyph-name="macron" unicode="&#xaf;" horiz-adv-x="290" 
d="M56 0v840h10h168v-840h-10h-168v0zM-22 935v115h10h123v-115h-10h-123v0zM179 935v115h10h123v-115h-10h-123v0z" />
    <glyph glyph-name="atilde" unicode="&#xe3;" horiz-adv-x="351" 
d="M42 0v672h10h278v-88h-136v-584h-10h-142v0z" />
    <glyph glyph-name="atilde" unicode="&#x433;" horiz-adv-x="351" 
d="M42 0v672h10h278v-88h-136v-584h-10h-142v0z" />
    <glyph glyph-name="adieresis" unicode="&#xe4;" horiz-adv-x="454" 
d="M173 0v-119h-10h-142v207h29l59 584h10h226l59 -584h29v-207h-10h-142v119h-108v0zM207 88h41l-21 398l-20 -398v0z" />
    <glyph glyph-name="adieresis" unicode="&#x434;" horiz-adv-x="454" 
d="M173 0v-119h-10h-142v207h29l59 584h10h226l59 -584h29v-207h-10h-142v119h-108v0zM207 88h41l-21 398l-20 -398v0z" />
    <glyph glyph-name="odieresis" unicode="&#xf6;" horiz-adv-x="437" 
d="M385 672v-584h38v-226h-10h-142v138h-229v672h10h142v-584h39v584h10h142v0z" />
    <glyph glyph-name="odieresis" unicode="&#x446;" horiz-adv-x="437" 
d="M385 672v-584h38v-226h-10h-142v138h-229v672h10h142v-584h39v584h10h142v0z" />
    <glyph glyph-name="divide" unicode="&#xf7;" horiz-adv-x="426" 
d="M232 0v300q-34 -25 -58.5 -33.5t-44.5 -8.5h-10q-34 0 -50 17t-22 37q-3 13 -4 24.5t-1 19.5v316h10h142v-299q0 -9 5 -14.5t12 -7.5q9 2 15 8t6 14v299h10h142v-672h-10h-142v0z" />
    <glyph glyph-name="divide" unicode="&#x447;" horiz-adv-x="426" 
d="M232 0v300q-34 -25 -58.5 -33.5t-44.5 -8.5h-10q-34 0 -50 17t-22 37q-3 13 -4 24.5t-1 19.5v316h10h142v-299q0 -9 5 -14.5t12 -7.5q9 2 15 8t6 14v299h10h142v-672h-10h-142v0z" />
    <glyph glyph-name="oslash" unicode="&#xf8;" horiz-adv-x="618" 
d="M42 0v672h10h142v-584h39v584h10h142v-584h39v584h10h142v-672h-10h-524v0z" />
    <glyph glyph-name="oslash" unicode="&#x448;" horiz-adv-x="618" 
d="M42 0v672h10h142v-584h39v584h10h142v-584h39v584h10h142v-672h-10h-524v0z" />
    <glyph glyph-name="udieresis" unicode="&#xfc;" horiz-adv-x="413" 
d="M42 0v672h10h142v-278h79q9 0 20 -1t23 -3q26 -7 47.5 -29t21.5 -74v-184q0 -7 -0.5 -15.5t-1.5 -16.5q-4 -27 -26 -49t-85 -22h-10h-220v0zM194 88h7q16 0 22.5 8t8.5 18q1 5 1 10v9v131v8t-1 10q-2 9 -8.5 16.5t-21.5 7.5h-8v-218v0z" />
    <glyph glyph-name="udieresis" unicode="&#x44c;" horiz-adv-x="413" 
d="M42 0v672h10h142v-278h79q9 0 20 -1t23 -3q26 -7 47.5 -29t21.5 -74v-184q0 -7 -0.5 -15.5t-1.5 -16.5q-4 -27 -26 -49t-85 -22h-10h-220v0zM194 88h7q16 0 22.5 8t8.5 18q1 5 1 10v9v131v8t-1 10q-2 9 -8.5 16.5t-21.5 7.5h-8v-218v0z" />
    <glyph glyph-name="thorn" unicode="&#xfe;" horiz-adv-x="619" 
d="M194 386h40v178q0 55 28.5 88.5t89.5 33.5h10h97q62 0 90 -33.5t28 -88.5v-459q0 -56 -22 -80.5t-48 -31.5q-13 -4 -25.5 -5t-22.5 -1l-10 -1h-96q-52 1 -76.5 20t-33.5 43q-7 17 -8 32.5t-1 23.5v193h-40v-298h-10h-142v672h10h142v-286v0zM386 575v-478q0 -8 5.5 -14.5
t13.5 -8.5q7 2 11.5 6t6.5 9q1 2 1.5 4t0.5 4v478q0 2 -0.5 4t-1.5 4q-2 5 -6.5 9t-11.5 6q-8 -2 -13.5 -8.5t-5.5 -14.5v0z" />
    <glyph glyph-name="thorn" unicode="&#x44e;" horiz-adv-x="619" 
d="M194 386h40v178q0 55 28.5 88.5t89.5 33.5h10h97q62 0 90 -33.5t28 -88.5v-459q0 -56 -22 -80.5t-48 -31.5q-13 -4 -25.5 -5t-22.5 -1l-10 -1h-96q-52 1 -76.5 20t-33.5 43q-7 17 -8 32.5t-1 23.5v193h-40v-298h-10h-142v672h10h142v-286v0zM386 575v-478q0 -8 5.5 -14.5
t13.5 -8.5q7 2 11.5 6t6.5 9q1 2 1.5 4t0.5 4v478q0 2 -0.5 4t-1.5 4q-2 5 -6.5 9t-11.5 6q-8 -2 -13.5 -8.5t-5.5 -14.5v0z" />
    <glyph glyph-name="glyph267" 
 />
    <glyph glyph-name="glyph268" 
 />
    <glyph glyph-name="glyph269" 
 />
    <glyph glyph-name="glyph270" 
 />
    <glyph glyph-name="glyph271" 
 />
    <glyph glyph-name="glyph272" 
 />
    <glyph glyph-name="glyph273" 
 />
    <glyph glyph-name="glyph274" 
 />
    <glyph glyph-name="glyph275" 
 />
    <glyph glyph-name="glyph276" 
 />
    <glyph glyph-name="glyph277" 
 />
    <glyph glyph-name="glyph278" 
 />
    <glyph glyph-name="glyph279" 
 />
    <glyph glyph-name="glyph280" 
 />
    <glyph glyph-name="glyph281" 
 />
    <glyph glyph-name="glyph282" 
 />
    <glyph glyph-name="glyph283" 
 />
    <glyph glyph-name="glyph284" 
 />
    <glyph glyph-name="glyph285" 
 />
    <glyph glyph-name="glyph286" 
 />
    <glyph glyph-name="glyph287" 
 />
    <glyph glyph-name="glyph288" 
 />
    <glyph glyph-name="glyph289" 
 />
    <glyph glyph-name="glyph290" 
 />
    <glyph glyph-name="glyph291" 
 />
    <glyph glyph-name="glyph292" 
 />
    <glyph glyph-name="glyph293" 
 />
    <glyph glyph-name="glyph294" 
 />
    <glyph glyph-name="glyph295" 
 />
    <glyph glyph-name="glyph296" 
 />
    <glyph glyph-name="glyph297" 
 />
    <glyph glyph-name="glyph298" 
 />
    <glyph glyph-name="glyph299" 
 />
    <glyph glyph-name="glyph300" 
 />
    <glyph glyph-name="glyph301" 
 />
    <glyph glyph-name="glyph302" 
 />
    <glyph glyph-name="glyph303" 
 />
    <glyph glyph-name="glyph304" 
 />
    <glyph glyph-name="glyph305" 
 />
    <glyph glyph-name="glyph306" 
 />
    <glyph glyph-name="glyph307" 
 />
    <glyph glyph-name="glyph308" 
 />
    <glyph glyph-name="glyph309" 
 />
    <glyph glyph-name="glyph310" 
 />
    <glyph glyph-name="glyph311" 
 />
    <glyph glyph-name="glyph312" 
 />
    <glyph glyph-name="glyph313" 
 />
    <glyph glyph-name="glyph314" 
 />
    <glyph glyph-name="glyph315" 
 />
    <glyph glyph-name="glyph316" 
 />
    <glyph glyph-name="glyph317" 
 />
    <glyph glyph-name="glyph318" 
 />
    <glyph glyph-name="glyph319" 
 />
    <glyph glyph-name="glyph320" 
 />
    <glyph glyph-name="glyph321" 
 />
    <glyph glyph-name="glyph322" 
 />
    <glyph glyph-name="glyph323" 
 />
    <glyph glyph-name="glyph324" 
 />
    <glyph glyph-name="glyph325" 
 />
    <glyph glyph-name="glyph326" 
 />
    <glyph glyph-name="glyph327" 
 />
    <glyph glyph-name="glyph328" 
 />
    <glyph glyph-name="glyph329" 
 />
    <glyph glyph-name="glyph330" 
 />
    <glyph glyph-name="glyph331" 
 />
    <glyph glyph-name="glyph332" 
 />
    <glyph glyph-name="glyph333" 
 />
    <glyph glyph-name="glyph334" 
 />
    <glyph glyph-name="glyph335" 
 />
    <glyph glyph-name="glyph336" 
 />
    <glyph glyph-name="glyph337" 
 />
    <glyph glyph-name="glyph338" 
 />
    <glyph glyph-name="glyph339" 
 />
    <glyph glyph-name="glyph340" 
 />
    <glyph glyph-name="glyph341" 
 />
    <glyph glyph-name="glyph342" 
 />
    <glyph glyph-name="glyph343" 
 />
    <glyph glyph-name="glyph344" 
 />
    <glyph glyph-name="glyph345" 
 />
    <glyph glyph-name="glyph346" 
 />
    <glyph glyph-name="glyph347" 
 />
    <glyph glyph-name="glyph348" 
 />
    <glyph glyph-name="glyph349" 
 />
    <glyph glyph-name="glyph350" 
 />
    <glyph glyph-name="glyph351" 
 />
    <glyph glyph-name="glyph352" 
 />
    <glyph glyph-name="glyph353" 
 />
    <glyph glyph-name="glyph354" 
 />
    <glyph glyph-name="glyph355" 
 />
    <glyph glyph-name="glyph356" 
 />
    <glyph glyph-name="glyph357" 
 />
    <glyph glyph-name="glyph358" 
 />
    <glyph glyph-name="glyph359" 
 />
    <glyph glyph-name="glyph360" 
 />
    <glyph glyph-name="glyph361" 
 />
    <glyph glyph-name="glyph362" 
 />
    <glyph glyph-name="glyph363" 
 />
    <glyph glyph-name="glyph364" 
 />
    <glyph glyph-name="glyph365" 
 />
    <glyph glyph-name="glyph366" 
 />
    <glyph glyph-name="glyph367" 
 />
    <glyph glyph-name="glyph368" 
 />
    <glyph glyph-name="glyph369" 
 />
    <glyph glyph-name="glyph370" 
 />
    <glyph glyph-name="glyph371" 
 />
    <glyph glyph-name="glyph372" 
 />
    <glyph glyph-name="glyph373" 
 />
    <glyph glyph-name="glyph374" 
 />
    <glyph glyph-name="glyph375" 
 />
    <glyph glyph-name="glyph376" 
 />
    <glyph glyph-name="glyph377" 
 />
    <glyph glyph-name="glyph378" 
 />
    <glyph glyph-name="glyph379" 
 />
    <glyph glyph-name="glyph380" 
 />
    <glyph glyph-name="glyph381" 
 />
    <glyph glyph-name="glyph382" 
 />
    <glyph glyph-name="glyph383" 
 />
    <glyph glyph-name="glyph384" 
 />
    <glyph glyph-name="glyph385" 
 />
    <glyph glyph-name="glyph386" 
 />
    <glyph glyph-name="glyph387" 
 />
    <glyph glyph-name="glyph388" 
 />
    <glyph glyph-name="glyph389" 
 />
    <glyph glyph-name="glyph390" 
 />
    <glyph glyph-name="glyph391" 
 />
    <glyph glyph-name="glyph392" 
 />
    <glyph glyph-name="glyph393" 
 />
    <glyph glyph-name="glyph394" 
 />
    <glyph glyph-name="glyph395" 
 />
    <glyph glyph-name="glyph396" 
 />
    <glyph glyph-name="glyph397" 
 />
    <glyph glyph-name="glyph398" 
 />
    <glyph glyph-name="glyph399" 
 />
    <glyph glyph-name="glyph400" 
 />
    <glyph glyph-name="glyph401" 
 />
    <glyph glyph-name="glyph402" 
 />
    <glyph glyph-name="glyph403" 
 />
    <glyph glyph-name="glyph404" 
 />
    <glyph glyph-name="glyph405" 
 />
    <glyph glyph-name="glyph406" 
 />
    <glyph glyph-name="glyph407" 
 />
    <glyph glyph-name="glyph408" 
 />
    <glyph glyph-name="glyph409" 
 />
    <glyph glyph-name="glyph410" 
 />
    <glyph glyph-name="glyph411" 
 />
    <glyph glyph-name="glyph412" 
 />
    <glyph glyph-name="glyph413" 
 />
    <glyph glyph-name="glyph414" 
 />
    <glyph glyph-name="glyph415" 
 />
    <glyph glyph-name="glyph416" 
 />
    <glyph glyph-name="glyph417" 
 />
    <glyph glyph-name="glyph418" 
 />
    <glyph glyph-name="glyph419" 
 />
    <glyph glyph-name="glyph420" 
 />
    <glyph glyph-name="glyph421" 
 />
    <glyph glyph-name="glyph422" 
 />
    <glyph glyph-name="glyph423" 
 />
    <glyph glyph-name="glyph424" 
 />
    <glyph glyph-name="glyph425" 
 />
    <glyph glyph-name="glyph426" 
 />
    <glyph glyph-name="glyph427" 
 />
    <glyph glyph-name="glyph428" 
 />
    <glyph glyph-name="glyph429" 
 />
    <glyph glyph-name="glyph430" 
 />
    <glyph glyph-name="glyph431" 
 />
    <glyph glyph-name="glyph432" 
 />
    <glyph glyph-name="glyph433" 
 />
    <glyph glyph-name="glyph434" 
 />
    <glyph glyph-name="glyph435" 
 />
    <glyph glyph-name="glyph436" 
 />
    <glyph glyph-name="glyph437" 
 />
    <glyph glyph-name="glyph438" 
 />
    <glyph glyph-name="glyph439" 
 />
    <glyph glyph-name="glyph440" 
 />
    <glyph glyph-name="glyph441" 
 />
    <glyph glyph-name="amacron" unicode="&#x101;" 
 />
  </font>
</defs>
</svg>
